<svg width="40" height="40" viewBox="0 0 40 40" fill="none" xmlns="http://www.w3.org/2000/svg"><path d="M25.6529 8.68203L28.0028 13.382C28.3195 14.032 29.1695 14.6487 29.8862 14.782L34.1362 15.482C36.8529 15.932 37.4862 17.8987 35.5362 19.8654L32.2195 23.182C31.6695 23.732 31.3529 24.8154 31.5362 25.5987L32.4862 29.6987C33.2362 32.932 31.5029 34.1987 28.6529 32.4987L24.6695 30.132C23.9528 29.6987 22.7528 29.6987 22.0362 30.132L18.0528 32.4987C15.2028 34.182 13.4695 32.932 14.2195 29.6987L15.1695 25.5987C15.3529 24.832 15.0362 23.7487 14.4862 23.182L11.1695 19.8654C9.21953 17.9154 9.85286 15.9487 12.5695 15.482L16.8195 14.782C17.5362 14.6653 18.3862 14.032 18.7028 13.382L21.0529 8.68203C22.3029 6.13203 24.3695 6.13203 25.6529 8.68203Z" stroke="currentColor" stroke-width="2.5" stroke-linecap="round" stroke-linejoin="round"></path><path d="M13.334 8.33203H3.33398" stroke="currentColor" stroke-width="2.5" stroke-linecap="round" stroke-linejoin="round"></path><path d="M8.33398 31.668H3.33398" stroke="currentColor" stroke-width="2.5" stroke-linecap="round" stroke-linejoin="round"></path><path d="M5.00065 20H3.33398" stroke="currentColor" stroke-width="2.5" stroke-linecap="round" stroke-linejoin="round"></path></svg>