<svg width="40" height="40" viewBox="0 0 40 40" fill="none" xmlns="http://www.w3.org/2000/svg"><path d="M20.0007 24.1654C22.3018 24.1654 24.1673 22.2999 24.1673 19.9987C24.1673 17.6975 22.3018 15.832 20.0007 15.832C17.6995 15.832 15.834 17.6975 15.834 19.9987C15.834 22.2999 17.6995 24.1654 20.0007 24.1654Z" stroke="currentColor" stroke-width="2.5" stroke-miterlimit="10" stroke-linecap="round" stroke-linejoin="round"></path><path d="M30.834 15.832V24.1654" stroke="currentColor" stroke-width="2.5" stroke-miterlimit="10" stroke-linecap="round" stroke-linejoin="round"></path><path d="M15.0013 29.9987C15.0013 31.2487 14.6513 32.432 14.0347 33.432C12.8847 35.3654 10.768 36.6654 8.33464 36.6654C5.9013 36.6654 3.78461 35.3654 2.63461 33.432C2.01795 32.432 1.66797 31.2487 1.66797 29.9987C1.66797 26.3154 4.6513 23.332 8.33464 23.332C12.018 23.332 15.0013 26.3154 15.0013 29.9987Z" stroke="currentColor" stroke-width="2.5" stroke-miterlimit="10" stroke-linecap="round" stroke-linejoin="round"></path><path d="M5.73633 29.9966L7.38631 31.6466L10.9363 28.3633" stroke="currentColor" stroke-width="2.5" stroke-linecap="round" stroke-linejoin="round"></path><path d="M3.33398 25.5013V15.0013C3.33398 9.16797 6.66732 6.66797 11.6673 6.66797H28.334C33.334 6.66797 36.6673 9.16797 36.6673 15.0013V25.0013C36.6673 30.8346 33.334 33.3346 28.334 33.3346H14.1673" stroke="currentColor" stroke-width="2.5" stroke-miterlimit="10" stroke-linecap="round" stroke-linejoin="round"></path></svg>