<svg width="60" height="60" viewBox="0 0 60 60" fill="none" xmlns="http://www.w3.org/2000/svg"><path d="M7.92383 18.6016L29.9988 31.3765L51.9238 18.6765" stroke="white" stroke-width="3.75" stroke-linecap="round" stroke-linejoin="round"></path><path d="M30 54.0266V31.3516" stroke="white" stroke-width="3.75" stroke-linecap="round" stroke-linejoin="round"></path><path d="M24.8265 6.2L11.4765 13.6251C8.45152 15.3001 5.97656 19.5 5.97656 22.95V37.0751C5.97656 40.5251 8.45152 44.725 11.4765 46.4L24.8265 53.8251C27.6765 55.4001 32.3515 55.4001 35.2015 53.8251L48.5516 46.4C51.5766 44.725 54.0515 40.5251 54.0515 37.0751V22.95C54.0515 19.5 51.5766 15.3001 48.5516 13.6251L35.2015 6.2C32.3265 4.6 27.6765 4.6 24.8265 6.2Z" stroke="white" stroke-width="3.75" stroke-linecap="round" stroke-linejoin="round"></path><path d="M42.4984 33.1V23.9501L18.7734 10.25" stroke="white" stroke-width="3.75" stroke-linecap="round" stroke-linejoin="round"></path></svg>