<svg width="60" height="60" viewBox="0 0 60 60" fill="none" xmlns="http://www.w3.org/2000/svg"><path d="M47.5 22.5C47.5 26.125 46.425 29.45 44.575 32.225C41.875 36.225 37.6 39.05 32.625 39.775C31.775 39.925 30.9 40 30 40C29.1 40 28.225 39.925 27.375 39.775C22.4 39.05 18.125 36.225 15.425 32.225C13.575 29.45 12.5 26.125 12.5 22.5C12.5 12.825 20.325 5 30 5C39.675 5 47.5 12.825 47.5 22.5Z" stroke="white" stroke-width="3.75" stroke-linecap="round" stroke-linejoin="round"></path><path d="M53.1218 46.175L48.9968 47.15C48.0718 47.375 47.3468 48.075 47.1468 49L46.2718 52.675C45.7968 54.675 43.2468 55.275 41.9218 53.7L29.9968 40L18.0718 53.725C16.7468 55.3 14.1968 54.7 13.7218 52.7L12.8468 49.025C12.6218 48.1 11.8968 47.375 10.9968 47.175L6.87178 46.2C4.97178 45.75 4.29678 43.375 5.67178 42L15.4218 32.25C18.1218 36.25 22.3968 39.075 27.3718 39.8C28.2218 39.95 29.0968 40.025 29.9968 40.025C30.8968 40.025 31.7718 39.95 32.6218 39.8C37.5968 39.075 41.8718 36.25 44.5718 32.25L54.3218 42C55.6968 43.35 55.0218 45.725 53.1218 46.175Z" stroke="white" stroke-width="3.75" stroke-linecap="round" stroke-linejoin="round"></path><path d="M31.4509 14.95L32.9259 17.9C33.1259 18.3 33.6509 18.7 34.1259 18.775L36.8009 19.225C38.5009 19.5 38.9009 20.75 37.6759 21.975L35.6009 24.05C35.2509 24.4 35.0509 25.075 35.1759 25.575L35.7759 28.15C36.2509 30.175 35.1759 30.975 33.3759 29.9L30.8759 28.425C30.4259 28.15 29.6759 28.15 29.2259 28.425L26.7259 29.9C24.9259 30.95 23.8509 30.175 24.3259 28.15L24.9259 25.575C25.0259 25.1 24.8509 24.4 24.5009 24.05L22.4259 21.975C21.2009 20.75 21.6009 19.525 23.3009 19.225L25.9759 18.775C26.4259 18.7 26.9509 18.3 27.1509 17.9L28.6259 14.95C29.3509 13.35 30.6509 13.35 31.4509 14.95Z" stroke="white" stroke-width="3.75" stroke-linecap="round" stroke-linejoin="round"></path></svg>