<svg width="162" height="143" viewBox="0 0 162 143" fill="none" xmlns="http://www.w3.org/2000/svg"><path opacity="0.5" d="M81 143C125.264 143 161.147 122.304 161.147 96.7739C161.147 71.2442 125.264 50.5483 81 50.5483C36.7363 50.5483 0.853516 71.2442 0.853516 96.7739C0.853516 122.304 36.7363 143 81 143Z" fill="#E4E9E8"></path><path d="M115.407 99.2674C115.425 96.4127 113.442 92.9282 110.98 91.4856C109.687 90.728 108.523 90.6907 107.703 91.2328L104.672 92.9375L111.023 103.888L114.027 102.185L114.023 102.178C114.865 101.728 115.398 100.724 115.407 99.2674Z" fill="#373E3F"></path><path d="M107.832 93.2699C110.295 94.7132 112.277 98.197 112.259 101.052C112.241 103.907 110.23 105.052 107.766 103.608C105.303 102.165 103.321 98.6812 103.339 95.8259C103.357 92.9705 105.368 91.8266 107.832 93.2699Z" fill="#53575A"></path><path d="M106.292 97.5553C106.299 96.4392 106.981 95.9304 107.814 96.4193C108.648 96.9081 109.318 98.2084 109.311 99.3245C109.304 100.441 108.622 100.949 107.789 100.46C106.955 99.9723 106.285 98.6713 106.292 97.5553Z" fill="#373E3F"></path><path opacity="0.15" d="M112.259 101.052C112.265 100.091 112.04 99.0586 111.651 98.0569L103.959 93.5913C103.572 94.1294 103.345 94.8816 103.339 95.8254C103.339 95.8607 103.342 95.8973 103.343 95.9325L112.256 101.107C112.256 101.089 112.259 101.071 112.259 101.052Z" fill="#373E3F"></path><path d="M83.5594 123.602C81.868 123.697 80.1566 123.422 78.8264 122.754L36.8942 98.6002C34.3594 97.3265 31.5167 94.0115 31.3398 90.8755L30.0494 61.0045L32.3847 60.8728L33.6743 90.7438C33.7947 92.8762 36.0268 95.5466 37.9417 96.509L79.874 120.663C81.8134 121.637 85.1011 121.447 86.9135 120.256L114.876 104.147C115.545 103.707 115.929 103.181 115.904 102.741C115.879 102.305 115.459 101.851 114.751 101.495L69.8613 75.4348C67.3319 74.1625 64.4978 70.8475 64.3202 67.7068L63.6937 51.1415L66.0289 51.0098L66.6554 67.5752C66.7758 69.7128 69 72.3833 70.9075 73.343L115.798 99.403C117.297 100.157 118.163 101.294 118.239 102.605C118.314 103.908 117.556 105.183 116.16 106.101L88.1972 122.21C86.9448 123.034 85.2621 123.505 83.5594 123.602Z" fill="#53575A"></path><path d="M76.0186 122.93C76.0366 120.076 74.0545 116.591 71.5916 115.149C70.2986 114.391 69.1353 114.354 68.3146 114.896L65.2843 116.601L71.6355 127.551L74.6392 125.848L74.6352 125.841C75.4765 125.391 76.0093 124.387 76.0186 122.93Z" fill="#373E3F"></path><path d="M68.4462 116.934C70.9092 118.377 72.8919 121.861 72.8732 124.717C72.8553 127.571 70.844 128.716 68.3804 127.273C65.9168 125.829 63.9348 122.345 63.9534 119.49C63.9713 116.635 65.9833 115.491 68.4462 116.934Z" fill="#53575A"></path><path d="M66.9036 121.218C66.9109 120.102 67.5927 119.593 68.4267 120.082C69.2608 120.571 69.9306 121.871 69.9233 122.988C69.9159 124.104 69.2342 124.612 68.4008 124.124C67.5661 123.635 66.8963 122.334 66.9036 121.218Z" fill="#373E3F"></path><path d="M45.0536 105.074C45.0769 102.219 43.1015 98.7313 40.6406 97.284C39.3489 96.5238 38.1856 96.4852 37.3642 97.0253L34.3313 98.724L40.6625 109.686L43.6689 107.989L43.6649 107.982C44.5069 107.533 45.0417 106.53 45.0536 105.074Z" fill="#373E3F"></path><path d="M37.4913 99.0641C39.9515 100.512 41.9276 104 41.9037 106.855C41.8804 109.709 39.8664 110.85 37.4061 109.402C34.9459 107.954 32.9698 104.466 32.9937 101.612C33.017 98.7568 35.0303 97.6161 37.4913 99.0641Z" fill="#53575A"></path><path d="M35.9406 103.345C35.9499 102.229 36.6324 101.722 37.4657 102.212C38.2985 102.702 38.9663 104.004 38.9569 105.12C38.9476 106.236 38.2652 106.743 37.4325 106.253C36.5991 105.763 35.932 104.461 35.9406 103.345Z" fill="#373E3F"></path><path d="M25.0727 24.8059C24.1801 21.91 25.5243 18.1813 28.0591 16.5205L55.9341 0.765243C58.4689 -0.895552 61.2404 0.257757 62.133 3.15434L64.0658 9.42772L62.1536 10.5431L60.0831 4.20589C59.5896 2.67213 58.0871 2.14669 56.7449 3.03728L29.6008 18.3848C27.9799 19.4603 27.1013 21.8674 27.6487 23.7344L29.2862 29.7523L27.0056 31.0799L25.0727 24.8059Z" fill="#53575A"></path><path d="M68.1712 55.0342L30.7264 76.6531L85.4535 108.249L122.898 86.6239L68.1712 55.0342Z" fill="#F08F3C"></path><path opacity="0.5" d="M68.1712 55.0342L30.7264 76.6531L85.4535 108.249L122.898 86.6239L68.1712 55.0342Z" fill="url(#paint0_linear_7690_3004)"></path><path d="M27.1252 31.2946L64.3718 9.64307L68.2886 55.2494L30.8439 76.8684L27.1252 31.2946Z" fill="url(#paint1_linear_7690_3004)"></path><path d="M64.0679 9.42676L68.171 55.0331L122.897 86.6228L131.539 48.3746L64.0679 9.42676ZM83.2006 53.2719C81.6908 53.8532 79.9349 52.9433 79.2784 51.24L70.2348 27.7687C69.5784 26.0646 70.2694 24.2116 71.7792 23.6303C73.289 23.049 75.045 23.9582 75.7014 25.6622L84.745 49.1335C85.4015 50.8376 84.7098 52.6899 83.2006 53.2719ZM100.288 61.3118C98.7783 61.8931 97.0224 60.9839 96.3666 59.2799L87.323 35.8086C86.6665 34.1046 87.3582 32.2522 88.8681 31.6702C90.3772 31.0883 92.1331 31.9981 92.7896 33.7022L101.833 57.1735C102.49 58.8775 101.798 60.7298 100.288 61.3118ZM117.376 69.3517C115.866 69.9337 114.111 69.0238 113.454 67.3198L104.411 43.8485C103.754 42.1445 104.446 40.2915 105.956 39.7102C107.465 39.1289 109.221 40.0381 109.877 41.7421L118.921 65.2134C119.577 66.9174 118.885 68.7698 117.376 69.3517Z" fill="#F3AC4A"></path><path d="M27.0087 31.0801L30.7273 76.6538L85.4544 108.25L94.0956 70.002L27.0087 31.0801ZM48.611 75.9408C47.1012 76.5228 45.3453 75.6129 44.6895 73.9089L35.6459 50.4376C34.9894 48.7336 35.6811 46.8812 37.1909 46.2993C38.7008 45.718 40.456 46.6272 41.1125 48.3312L50.156 71.8025C50.8119 73.5065 50.1201 75.3595 48.611 75.9408ZM65.6985 83.9808C64.1893 84.5628 62.4328 83.6529 61.7763 81.9488L52.7334 58.4776C52.0769 56.7735 52.7686 54.9205 54.2778 54.3392C55.7876 53.7579 57.5435 54.6671 58.2 56.3711L67.2436 79.8424C67.9 81.5464 67.2083 83.3995 65.6985 83.9808ZM82.7867 92.0207C81.2768 92.6027 79.5209 91.6928 78.8645 89.9888L69.8209 66.5175C69.1644 64.8134 69.8555 62.9611 71.3653 62.3791C72.8751 61.7971 74.631 62.707 75.2875 64.4111L84.3311 87.8823C84.9875 89.5864 84.2965 91.4394 82.7867 92.0207Z" fill="#F3AC4A"></path><path d="M93.8789 69.8851L131.324 48.2661L122.683 86.515L85.2384 108.133L93.8789 69.8851Z" fill="#F08F3C"></path><defs><linearGradient id="paint0_linear_7690_3004" x1="76.812" y1="55.0342" x2="76.812" y2="108.249" gradientUnits="userSpaceOnUse"><stop stop-color="#006471"></stop><stop offset="1" stop-color="#0095A9"></stop></linearGradient><linearGradient id="paint1_linear_7690_3004" x1="47.7069" y1="9.64307" x2="47.7069" y2="76.8684" gradientUnits="userSpaceOnUse"><stop stop-color="#006471"></stop><stop offset="1" stop-color="#0095A9"></stop></linearGradient></defs></svg>