<svg width="40" height="40" viewBox="0 0 40 40" fill="none" xmlns="http://www.w3.org/2000/svg" class="c-pointer"><circle cx="20" cy="20" r="19.25" stroke="#0095A9" stroke-width="1.5"></circle><path d="M20.8043 23.9952L20.8043 17.9232L23.4363 20.5632C23.587 20.7139 23.7913 20.7985 24.0043 20.7985C24.2174 20.7985 24.4217 20.7139 24.5723 20.5632C24.723 20.4126 24.8076 20.2083 24.8076 19.9952C24.8076 19.7822 24.723 19.5779 24.5723 19.4272L20.5723 15.4272C20.4963 15.3544 20.4065 15.2973 20.3083 15.2592C20.1136 15.1792 19.8951 15.1792 19.7003 15.2592C19.6021 15.2973 19.5124 15.3544 19.4363 15.4272L15.4363 19.4272C15.3614 19.5016 15.3018 19.5901 15.2612 19.6876C15.2206 19.7851 15.1997 19.8896 15.1997 19.9952C15.1997 20.1008 15.2206 20.2054 15.2612 20.3029C15.3018 20.4004 15.3614 20.4889 15.4363 20.5632C15.5107 20.6382 15.5992 20.6977 15.6967 20.7383C15.7942 20.779 15.8987 20.7999 16.0043 20.7999C16.11 20.7999 16.2145 20.779 16.312 20.7383C16.4095 20.6977 16.498 20.6382 16.5723 20.5632L19.2043 17.9232L19.2043 23.9952C19.2043 24.2074 19.2886 24.4109 19.4387 24.5609C19.5887 24.7109 19.7922 24.7952 20.0043 24.7952C20.2165 24.7952 20.42 24.7109 20.57 24.5609C20.7201 24.4109 20.8043 24.2074 20.8043 23.9952Z" fill="#0095A9"></path></svg>