<svg width="90" height="116" viewBox="0 0 90 116" fill="none" xmlns="http://www.w3.org/2000/svg" class="styles_small_logo__oup_q"><g clip-path="url(#clip0_1932_315)"><path d="M89.986 98.5996H72.8433V115.742H89.986V98.5996Z" fill="#CCD4D6"></path><path d="M68.5579 51.4541V72.8857H47.1328V94.3109H25.7012V115.742H47.1328H68.5579V94.3109H89.9895V72.8857V51.4541H68.5579Z" fill="#CCD4D6"></path><path d="M38.5743 25.7207H21.4316V42.8634H38.5743V25.7207Z" fill="#CCD4D6"></path><path d="M89.9882 0H42.8555V21.4316H89.9882V0Z" fill="#CCD4D6"></path><path d="M42.8568 25.7207V47.1459H21.4316V68.5775H0V90.009H21.4316H42.8568V68.5775H64.2883V47.1459V25.7207H42.8568Z" fill="#CCD4D6"></path><path d="M38.6129 0H0V64.2691H4.28889V4.28889H38.6129V0Z" fill="#CCD4D6"></path><path d="M85.7112 25.7199V47.293H90.0001V25.7199H85.7112Z" fill="#CCD4D6"></path><path d="M4.28889 111.453V94.2979H0V115.742H21.4316V111.453H4.28889Z" fill="#CCD4D6"></path></g><defs><clipPath id="clip0_1932_315"><rect width="90" height="115.742" fill="white"></rect></clipPath></defs></svg>