<svg width="32" height="32" viewBox="0 0 32 32" fill="none" xmlns="http://www.w3.org/2000/svg"><path d="M20.4117 17.8474C20.7706 17.9734 22.6724 18.9117 23.0629 19.1069L23.0692 19.0943C23.1475 19.1335 23.2205 19.1686 23.288 19.201C23.5566 19.3302 23.7367 19.4168 23.8123 19.5477C23.9067 19.7115 23.9067 20.486 23.5855 21.3929C23.2644 22.2997 21.7152 23.1246 20.9721 23.238C20.3046 23.3387 19.4545 23.3828 18.5287 23.0869C17.9683 22.9042 17.2441 22.6649 16.3184 22.2682C12.6933 20.7079 10.243 17.2026 9.76634 16.5207C9.73126 16.4705 9.70687 16.4356 9.69349 16.4179C9.68886 16.4116 9.6835 16.4043 9.67746 16.3961C9.43713 16.0692 8.11285 14.2678 8.11285 12.4065C8.11285 10.6295 8.98127 9.69356 9.38545 9.25798C9.41526 9.22585 9.44256 9.19644 9.46679 9.16961C9.81944 8.77917 10.2414 8.68471 10.4996 8.68471C10.7578 8.68471 11.0159 8.68471 11.2427 8.69731C11.2706 8.69878 11.2996 8.6987 11.3296 8.69863C11.5568 8.69805 11.8399 8.69733 12.118 9.36483C12.2615 9.70423 12.4908 10.2613 12.7111 10.7965C12.9937 11.4827 13.2614 12.1331 13.3145 12.2427C13.409 12.438 13.4782 12.6647 13.346 12.9229C13.322 12.9697 13.3003 13.0134 13.2797 13.055C13.1865 13.2425 13.1154 13.3859 12.9555 13.5715C12.9058 13.6312 12.8542 13.6945 12.8021 13.7585C12.6564 13.9373 12.506 14.1218 12.3762 14.2516C12.181 14.4468 11.9794 14.6546 12.2062 15.0451C12.4266 15.4292 13.2074 16.7013 14.3599 17.7278C15.5989 18.835 16.6747 19.3022 17.2211 19.5395C17.3273 19.5856 17.4135 19.623 17.4771 19.6548C17.8612 19.85 18.0879 19.8185 18.3146 19.5603C18.5413 19.3021 19.2844 18.4331 19.5426 18.0426C19.8008 17.6522 20.059 17.7152 20.4117 17.8474Z" fill="white"></path><path fill-rule="evenodd" clip-rule="evenodd" d="M15.9906 0.347656C20.1406 0.347656 24.0387 1.96609 26.967 4.89438C29.8953 7.82896 31.5074 11.727 31.5074 15.8707C31.5011 24.4226 24.5425 31.3812 15.9906 31.3812H15.9843C13.3898 31.3812 10.8394 30.7263 8.5723 29.492L0.3479 31.652L2.55199 23.6165C1.19175 21.2613 0.480146 18.5912 0.480146 15.8581C0.480146 7.30628 7.43877 0.347656 15.9906 0.347656ZM9.42874 26.973C11.4061 28.1444 13.6795 28.7678 15.9906 28.7678V28.7741C23.1004 28.7741 28.8877 22.9868 28.8877 15.877C28.8877 12.4261 27.5526 9.1892 25.1156 6.75211C22.6785 4.31502 19.4416 2.97367 15.9969 2.97367C8.88717 2.97367 3.09986 8.75468 3.09986 15.8644C3.09986 18.3015 3.77998 20.6756 5.07095 22.7286L5.37952 23.2135L4.07596 27.9743L8.95644 26.696L9.42874 26.973Z" fill="white"></path></svg>