<svg width="84" height="57" viewBox="0 0 84 57" fill="none" xmlns="http://www.w3.org/2000/svg">
<path d="M82.9077 45.7603H77.9581V0.933884C77.9581 0.373554 77.5845 0 77.0242 0H6.98288C6.42255 0 6.049 0.373554 6.049 0.933884V45.7603H1.09941C0.539081 45.7603 0.165527 46.1339 0.165527 46.6942C0.165527 52.1107 4.55478 56.5 9.97131 56.5H74.1292C79.5457 56.5 83.935 52.1107 83.935 46.6942C83.8416 46.1339 83.468 45.7603 82.9077 45.7603ZM44.992 52.1107H39.1085C38.5482 52.1107 38.1746 51.7372 38.1746 51.1769C38.1746 50.6165 38.5482 50.243 39.1085 50.243H44.992C45.5523 50.243 45.9259 50.6165 45.9259 51.1769C45.9259 51.7372 45.4589 52.1107 44.992 52.1107ZM7.91677 1.86777H76.0903V45.7603H7.91677V1.86777Z" fill="#003239"/>
<path d="M72.6352 4.01569H11.3724C10.812 4.01569 10.4385 4.38924 10.4385 4.94957V43.052C10.4385 43.6124 10.812 43.9859 11.3724 43.9859H72.7286C73.2889 43.9859 73.6624 43.6124 73.6624 43.052V4.94957C73.5691 4.38924 73.1955 4.01569 72.6352 4.01569ZM61.3352 31.1917L56.479 36.0479L48.2608 27.8297L45.179 34.6471L38.8286 13.6347L60.4947 19.3314L53.0236 22.9735L61.3352 31.1917Z" fill="#0095A9"/>
<circle cx="31.7305" cy="14.9422" r="6.53719" fill="#F97D07"/>
</svg>
