<svg width="61" height="70" viewBox="0 0 61 70" fill="none" xmlns="http://www.w3.org/2000/svg">
<path d="M54.7535 57.8524C54.761 60.4313 52.4856 62.4844 49.79 62.4832H12.5636C9.8213 62.4832 7.60007 60.4109 7.60007 57.8524V13.8591C7.60007 13.0139 7.84826 12.2267 8.2702 11.5437C9.1264 10.1544 10.7271 9.22822 12.5636 9.22822H22.4906V6.91278H12.5636C9.20086 6.91278 6.35919 8.99666 5.44095 11.8447C2.38836 12.7014 0.154785 15.3525 0.154785 18.49V62.4832C0.154785 66.3153 3.49275 69.4295 7.60007 69.4295H44.8265C48.1893 69.4295 51.0309 67.3457 51.9491 64.4977C55.0017 63.641 57.2353 60.9897 57.2353 57.8524V31.7921C56.4545 31.9497 55.5616 31.9493 54.7535 31.9426V57.8524Z" fill="#003239"/>
<path d="M54.3599 0.570496H30.5791C26.9176 0.570496 23.939 3.54913 23.939 7.21061V25.5867C24.0047 30.0468 27.7843 32.6768 32.0412 32.2268L34.9246 37.032C35.1478 37.4042 35.5501 37.6316 35.9838 37.6316C36.4175 37.6316 36.8199 37.4042 37.043 37.032L39.9264 32.2268H54.3599C58.0214 32.2268 61 29.2482 61 25.5867V7.21061C61 3.54913 58.0214 0.570496 54.3599 0.570496ZM52.4273 11.5579L40.8969 23.0876C40.1731 23.8115 39.0005 23.8115 38.2766 23.0876L32.5118 17.3228C30.8199 15.5741 33.3795 13.0078 35.1322 14.7025C35.1321 14.7025 39.5868 19.1571 39.5868 19.1571L49.8069 8.9376C51.557 7.24439 54.1212 9.80727 52.4273 11.5579Z" fill="#0095A9"/>
<path d="M11.5845 16.6303V19.101C11.5845 20.4599 12.6963 21.5718 14.0552 21.5718H21.4674V14.1595H14.0552C12.6963 14.1595 11.5845 15.2713 11.5845 16.6303Z" fill="#003239"/>
<path d="M12.82 25.2779C11.1978 25.3087 11.1969 27.7177 12.82 27.7486H21.7394C21.5247 26.9636 21.4525 26.1124 21.4676 25.2779H12.82Z" fill="#003239"/>
<path d="M22.7529 30.2194H12.8204C11.199 30.25 11.1967 32.659 12.8205 32.6901H24.89C24.0376 32.0107 23.2964 31.1705 22.7529 30.2194Z" fill="#003239"/>
<path d="M12.82 35.1608C11.1981 35.1918 11.1966 37.6004 12.8201 37.6316C12.82 37.6316 26.545 37.6316 26.545 37.6316C27.9657 36.7297 29.547 36.0503 31.2147 35.6426L30.9306 35.1608H12.82Z" fill="#003239"/>
<path d="M23.5065 40.1023H12.8205C11.1985 40.133 11.1973 42.5421 12.8205 42.573H21.5422C22.1105 41.6835 22.7652 40.8559 23.5065 40.1023Z" fill="#003239"/>
<path d="M12.82 47.5146H19.4416C19.6393 46.6622 19.911 45.8345 20.2322 45.0438H12.82C11.1977 45.0747 11.197 47.4837 12.82 47.5146Z" fill="#003239"/>
<path d="M12.82 52.456H19.0586C18.9693 51.6475 18.9816 50.7946 19.0463 49.9853H12.82C11.1976 50.0161 11.1972 52.4252 12.82 52.456Z" fill="#003239"/>
<path d="M36.3089 41.3423C31.861 41.3423 28.2422 44.9552 28.2422 49.396C28.2422 49.9524 28.6937 50.4027 29.2505 50.4027C29.8074 50.4027 30.2589 49.9524 30.2589 49.396C30.2589 46.0652 32.9727 43.3557 36.3089 43.3557C37.6315 43.3358 37.6361 41.3635 36.3089 41.3423Z" fill="#F97D07"/>
<path d="M35.4902 56.6443C35.4902 57.2008 35.941 57.651 36.4969 57.651C40.9377 57.651 44.5506 54.0381 44.5506 49.5973C44.5506 49.0409 44.0999 48.5906 43.5439 48.5906C42.988 48.5906 42.5372 49.0409 42.5372 49.5973C42.5372 52.9281 39.8277 55.6376 36.4969 55.6376C35.941 55.6376 35.4902 56.0879 35.4902 56.6443Z" fill="#F97D07"/>
</svg>
