<svg width="81" height="66" viewBox="0 0 81 66" fill="none" xmlns="http://www.w3.org/2000/svg">
<g clip-path="url(#clip0_1179_6751)">
<path d="M39.2792 0.5C45.7407 0.5 51.1057 5.41788 51.9623 11.7692H59.7497L60.6308 8.41124C60.7205 8.06589 60.9198 7.76048 61.1976 7.54258C61.4753 7.32468 61.816 7.20653 62.1666 7.20653H68.8618H70.4565V10.4444H68.8618H63.3859L62.5141 13.7644C62.5121 13.7771 62.51 13.7898 62.5077 13.8024L56.6315 36.1512C56.6246 36.1703 56.6173 36.1892 56.6097 36.2081L54.8258 42.9842C54.7372 43.328 54.54 43.6326 54.2647 43.8509C53.9894 44.0692 53.6513 44.1891 53.3024 44.192H24.0455H22.4508V40.9542H24.0455H52.0831L53.0294 37.3464H24.0455C23.6962 37.347 23.3564 37.2302 23.0788 37.0141C22.8012 36.798 22.6012 36.4948 22.5097 36.1512L16.5063 13.8151C16.4422 13.5756 16.4328 13.3243 16.4791 13.0806C16.5254 12.8369 16.6261 12.6073 16.7733 12.4095C16.9206 12.2118 17.1104 12.0512 17.3283 11.9402C17.5461 11.8292 17.7861 11.7707 18.0297 11.7693H26.5927C27.4492 5.41776 32.8175 0.5 39.2792 0.5ZM39.2792 3.73785C33.9417 3.73785 29.652 8.10973 29.652 13.5494C29.652 18.9891 33.9417 23.361 39.2792 23.361C44.6166 23.361 48.9063 18.9891 48.9063 13.5494C48.9063 8.10973 44.6166 3.73785 39.2792 3.73785ZM40.8738 7.15594V8.7717V11.9368H43.9671H45.5618V15.1747H43.9671H40.8738V18.3303V19.9556H37.6938V18.3303V15.1747H34.5881H33.0027V11.9368H34.5881H37.6938V8.7717V7.15594H40.8738ZM58.8965 15.0103H52.0027C51.2876 21.5173 45.8499 26.602 39.2792 26.602C32.7085 26.602 27.2708 21.5172 26.5556 15.0103H20.1179L25.2526 34.1054H53.8766L58.8965 15.0103Z" fill="#003239"/>
<circle cx="39.4694" cy="13.7803" r="10.6242" fill="#F97D07"/>
<circle cx="39.4694" cy="13.7803" r="10.6242" fill="#F97D07"/>
<path d="M37.9026 19.9777V7.58282H41.0363V19.9777H37.9026ZM33.272 15.3471V12.2134H45.6669V15.3471H33.272Z" fill="white"/>
</g>
<path fill-rule="evenodd" clip-rule="evenodd" d="M10.1039 61.2367C9.42209 61.2644 8.74143 61.162 8.10287 60.9358C7.4643 60.7095 6.88105 60.3641 6.38823 59.9203C5.89541 59.4765 5.50324 58.9435 5.23531 58.3534C4.96739 57.7633 4.82927 57.1284 4.82927 56.4867C4.82927 55.8451 4.96739 55.2102 5.23531 54.6201C5.50324 54.03 5.89541 53.497 6.38823 53.0532C6.88105 52.6094 7.4643 52.2639 8.10287 52.0377C8.74143 51.8115 9.42209 51.7091 10.1039 51.7367H35.4246C36.1063 51.7091 36.787 51.8115 37.4256 52.0377C38.0641 52.2639 38.6474 52.6094 39.1402 53.0532C39.633 53.497 40.0252 54.03 40.2931 54.6201C40.561 55.2102 40.6992 55.8451 40.6992 56.4867C40.6992 57.1284 40.561 57.7633 40.2931 58.3534C40.0252 58.9435 39.633 59.4765 39.1402 59.9203C38.6474 60.3641 38.0641 60.7095 37.4256 60.9358C36.787 61.162 36.1063 61.2644 35.4246 61.2367H10.1039ZM70.8961 47H10.1039C7.42414 47 4.85419 48.0009 2.95935 49.7825C1.06451 51.5641 0 53.9804 0 56.5C0 59.0196 1.06451 61.4359 2.95935 63.2175C4.85419 64.9991 7.42414 66 10.1039 66H70.8961C73.5759 66 76.1458 64.9991 78.0407 63.2175C79.9355 61.4359 81 59.0196 81 56.5C81 53.9804 79.9355 51.5641 78.0407 49.7825C76.1458 48.0009 73.5759 47 70.8961 47Z" fill="#003239"/>
<defs>
<clipPath id="clip0_1179_6751">
<rect width="54.0064" height="43.3822" fill="white" transform="translate(16.4502 0.5)"/>
</clipPath>
</defs>
</svg>
