<svg width="144" height="144" viewBox="0 0 144 144" fill="none" xmlns="http://www.w3.org/2000/svg">
<g clip-path="url(#clip0_1202_2590)">
<circle cx="79" cy="77" r="50" fill="#B2DFE5"/>
<path d="M106.5 45L99.5 38.5H98L87 37L77 34L72.5 31.5H69.5L61.5 36L54.5 42L50 48.5L47 55.5L44 63L43.5 69V75L44 81L45 85.5L49.5 92L63 101L60 102L53 105L48.5 99.5L36.5 98.5L28.5 116.5L34 136H45L52 131L60.5 132L73.5 133L83 132L90.5 130.5L98 128L106.5 124.5L116 121.5L125 116.5L132 110V108.5L130.5 107H128.5L123.5 109L117 113L113.5 114.5L114.5 113L122 108.5L124.5 105V103.5L123 102H122L119 102.5V100.5H118H117H114.5L112 102L107.5 109.5L104.5 111.5L101.5 112L103.5 108L104.5 103.5L103.5 102H100.5L98 103.5L93.5 112H86H82.5L81.5 109.5L87 107L93 103.5L94.5 101L113.5 84L112 64.5L106.5 45Z" fill="white"/>
<circle cx="73.9638" cy="70.0364" r="18.9818" fill="#F97D07"/>
<path d="M80.1086 59.9843C78.9651 59.3913 77.8639 58.989 76.8263 58.7772L77.1016 56.8925C77.271 55.7913 76.8475 55.1561 75.8733 55.0078C74.8569 54.8596 74.2639 55.3466 74.0945 56.4478L73.7557 58.7984C71.9345 59.0949 70.3463 59.7513 68.9698 60.7678C67.4451 61.8902 66.5557 63.2455 66.3227 64.8125C66.1322 66.189 66.7251 67.3749 68.1016 68.3702C69.1604 69.1325 70.4945 69.6831 72.1039 70.0219L71.1933 76.3113C70.8333 76.3113 70.5157 76.2902 70.2616 76.2478C69.9863 76.2055 69.4145 75.9725 68.5463 75.5702C67.678 75.1466 67.0427 74.9137 66.6616 74.8713C65.1792 74.6596 64.3533 75.2313 64.1627 76.5866C64.0569 77.3066 64.438 77.9419 65.3275 78.5349C66.3016 79.1913 67.7204 79.6784 69.5839 79.9325C69.9227 79.9749 70.2827 80.0172 70.6427 80.0596L70.1769 83.2149C70.1345 83.5749 70.1769 83.9137 70.3463 84.2525C70.558 84.6549 70.8969 84.8878 71.3627 84.9513C72.4427 85.0996 73.0357 84.676 73.1839 83.6596L73.7133 80.1019C75.8522 79.9749 77.5886 79.509 78.9651 78.7255C80.638 77.7725 81.6122 76.3961 81.8663 74.5961C82.1627 72.5843 81.718 70.8902 80.5533 69.556C79.5157 68.3702 77.9698 67.5443 75.9369 67.0784C75.8733 67.0572 75.7675 67.0361 75.6404 67.0149L76.2757 62.6525C76.678 62.7372 77.2922 62.9278 78.0969 63.2243C78.8804 63.5208 79.4733 63.7113 79.9392 63.7749C80.4686 63.8596 80.9557 63.7325 81.4004 63.4149C81.8451 63.0972 82.0992 62.6525 82.1839 62.1231C82.2475 61.4243 81.5698 60.7255 80.1086 59.9843ZM72.6333 66.4219C71.1298 65.9984 70.431 65.4055 70.558 64.6643C70.6851 63.7961 71.5533 63.1608 73.1627 62.8008L72.6333 66.4219ZM77.758 73.7913C77.6098 74.8713 76.4451 75.6125 74.3063 76.0361L75.0898 70.5937C77.1227 71.1231 77.991 72.1819 77.758 73.7913Z" fill="white"/>
<path d="M134.722 41.6707C133.457 38.8633 128.916 32.4656 127.925 32.7356C126.549 33.0865 121.981 37.0277 119.559 39.2682C118.789 39.97 119.091 41.2658 120.137 41.5357L121.485 41.9406C122.146 42.1296 122.559 42.7504 122.476 43.4253L121.21 52.5223C121.018 53.7101 121.926 54.8169 123.164 54.8708L124.843 54.9788C125.889 55.0328 126.797 54.358 127.017 53.3592L128.998 44.3161C129.136 43.6682 129.741 43.2093 130.429 43.2633L133.429 43.5063C134.365 43.5603 135.135 42.5885 134.722 41.6707Z" fill="#0095A9"/>
<path d="M113.148 8.29889L113.941 8.57758C114.337 8.70426 114.57 9.10963 114.524 9.54033L113.778 15.4182C113.661 16.1783 114.197 16.8877 114.92 16.9383L115.9 17.0144C116.506 17.065 117.042 16.609 117.159 15.9756L118.325 10.1231C118.418 9.69235 118.768 9.41366 119.141 9.43899L120.889 9.591C121.472 9.64168 121.915 8.98295 121.682 8.40023C120.936 6.6014 118.301 2.44635 117.718 2.6237C116.926 2.85172 114.244 5.41062 112.845 6.82942C112.379 7.3108 112.565 8.12154 113.148 8.29889Z" fill="#0095A9"/>
<path d="M45.9285 15.5717L47.8363 16.1672C48.7707 16.4451 49.3547 17.3581 49.2379 18.3505L47.4469 31.7286C47.1744 33.4752 48.4592 35.1028 50.2113 35.1822L52.5863 35.341C54.0659 35.4204 55.3507 34.428 55.6622 32.9592L58.4266 19.6606C58.6212 18.7078 59.4778 18.033 60.4512 18.1124L64.6951 18.4696C66.0967 18.549 67.1869 17.1199 66.6029 15.7702C64.8119 11.6417 58.3876 2.2334 56.986 2.63038C55.0392 3.14644 48.576 8.94226 45.1498 12.2371C44.0207 13.2693 44.4489 15.1748 45.9285 15.5717Z" fill="#0095A9"/>
<path d="M126.593 107.026C125.153 107.428 123.184 108.762 121.108 110.16C119.626 111.155 118.101 112.193 116.831 112.828C116.323 113.082 115.539 113.421 114.459 113.866C114.565 113.675 114.671 113.464 114.777 113.273C118.8 111.177 123.036 108.466 123.438 107.831C125.026 105.417 125.471 103.722 124.814 102.664C124.306 101.817 123.163 101.499 121.447 101.689C121.214 101.711 120.77 101.817 119.563 102.367C119.668 101.922 119.732 101.52 119.732 101.245C119.732 101.181 119.732 101.139 119.732 101.097C119.626 100.313 119.16 99.7412 118.398 99.4659C116.534 98.8095 113.316 100.101 112.13 101.245C111.261 102.071 108.89 105.798 106.899 109.017C104.951 110.097 103.447 110.944 103.045 111.177L102.092 111.198C102.113 111.155 102.113 111.134 102.134 111.092C102.283 110.795 102.41 110.499 102.558 110.202C102.621 110.054 102.685 109.906 102.748 109.758C103.68 107.704 104.421 105.777 104.633 104.591C104.697 104.252 104.718 103.934 104.718 103.659C104.718 103.108 104.612 102.685 104.443 102.367C104.421 102.304 104.379 102.261 104.358 102.219C104.294 102.113 104.231 102.028 104.167 101.965C104.019 101.817 103.871 101.689 103.723 101.605C102.05 100.652 99.0214 102.24 98.0261 103.045C97.3908 103.574 96.6284 104.993 95.3579 107.471C94.7014 108.72 94.0026 110.097 93.2402 111.409L84.0496 111.621C83.7108 111.409 83.3932 111.261 83.1602 111.113C82.1861 110.584 82.0802 110.52 82.2285 109.991C83.3296 109.44 88.5179 106.814 91.292 105.374C92.6684 104.654 93.812 103.489 94.5532 102.071C108.043 98.7036 115.433 90.72 117.043 77.9083C117.741 72.4236 116.513 66.4306 114.396 60.6706C115.221 61.4965 116.068 62.1318 116.958 62.64C118.313 63.4024 119.817 63.8048 121.236 63.8048C121.828 63.8048 122.4 63.7412 122.951 63.6142C123.544 63.4659 124.052 63.1059 124.37 62.5977C124.687 62.0895 124.793 61.4542 124.645 60.8612C124.348 59.633 123.12 58.8706 121.892 59.1459C121.087 59.3365 120.092 59.1459 119.181 58.6377C118.292 58.1506 117.424 57.3459 116.534 56.2024C114.544 53.7036 113.252 50.6965 112.786 47.5412C112.659 46.6306 112.596 45.6989 112.511 44.7248C112.447 43.8777 112.384 43.0095 112.278 42.12C111.96 39.5365 111.304 37.5671 110.224 35.9577C109.334 34.6236 108.127 33.5648 106.772 32.8024C110.308 31.8071 114.332 30.5153 117.445 29.0753C119.097 28.313 120.346 27.5506 121.257 26.7883C122.146 26.0471 122.676 25.2848 122.866 24.5436C123.226 22.9553 122.464 21.6424 120.537 20.6471C120.304 20.52 120.028 20.393 119.732 20.2659C117.636 19.3765 114.883 18.8895 112.447 18.4448C110.626 18.1059 108.551 17.7459 108.212 17.3648C107.852 16.9836 107.937 16.6236 108.276 15.7765C108.678 14.7389 109.25 13.2989 107.661 11.6048C105.967 9.7624 99.9108 10.2495 92.7743 11.033C90.5296 11.2659 88.6026 11.4777 87.8826 11.4142C86.5908 11.2871 85.2355 10.0589 84.0496 8.97887C83.012 8.0471 82.1861 7.30593 81.4026 7.2424C79.899 7.13652 76.9555 9.00005 75.5579 14.4212C74.7743 17.4495 74.4355 22.5318 74.2873 26.1318C73.5885 25.9836 72.8261 26.153 72.2543 26.6824C71.8096 27.1059 71.5343 27.6565 71.5132 28.2706C71.492 28.8848 71.7037 29.4777 72.1061 29.9224C72.1273 29.9648 72.2543 30.0918 72.4661 30.2824C71.852 30.473 71.1108 30.7059 70.3061 31.0024C66.6214 32.3789 61.1367 35.0895 55.9696 40.2142C49.8285 46.3342 45.6567 54.3601 43.5814 64.0589C42.2049 70.4753 42.2896 76.8071 43.8143 82.3342C45.572 88.7506 49.299 94.0871 54.5296 97.7506C56.5202 99.1483 58.7437 100.313 61.1579 101.224C58.4473 101.944 56.012 102.897 54.3602 103.617C51.9885 99.2753 49.2143 99.0424 48.8967 99.0212L37.9061 97.7295L18.7202 94.6377C18.6143 94.6165 18.4873 94.6377 18.4026 94.7012C15.7132 96.0989 12.2614 99.6142 10.652 105.226C9.0214 110.922 8.80963 120.621 17.0049 134.64C17.1743 134.937 17.259 135.064 21.9179 135.402C24.9673 135.614 29.3296 135.868 34.8567 136.122C40.0026 136.355 44.1108 136.546 45.212 136.588L45.4873 136.609H45.5085C45.5296 136.609 45.5296 136.609 45.5508 136.609C47.6473 136.44 50.1885 134.449 52.3908 131.294H52.5814C53.5767 131.421 67.6167 133.285 76.7226 133.285C78.8614 133.285 80.7249 133.179 82.0802 132.925C86.379 132.141 90.8049 130.892 94.9767 129.537H94.9979C95.3155 129.452 100.652 127.948 104.57 126.191C105.036 126.021 105.48 125.852 105.904 125.704C109.228 124.475 112.087 123.417 114.035 122.908C119.52 121.447 130.638 112.765 132.374 109.694C132.65 109.207 132.734 108.826 132.65 108.487C132.311 107.153 130.956 105.819 126.593 107.026ZM119.139 103.68C120.876 102.854 121.426 102.727 121.574 102.706C122.824 102.558 123.65 102.748 123.925 103.193C124.158 103.574 124.285 104.612 122.57 107.217C122.252 107.577 119.308 109.588 115.603 111.621C116.683 109.482 118.292 106.137 119.139 103.68ZM103.214 112.193C103.299 112.193 103.384 112.172 103.468 112.129C103.49 112.129 104.4 111.6 105.798 110.817C105.734 110.944 105.65 111.049 105.586 111.177C104.76 112.532 104.146 113.569 103.956 113.887L99.1484 117.085C99.8049 115.835 100.716 114.078 101.605 112.235L103.214 112.193ZM99.6143 64.9059C100.017 66.2824 101.097 67.3412 102.261 67.4895C102.6 67.5318 102.897 67.7012 103.087 67.9553C103.299 68.2095 103.384 68.5483 103.341 68.8871C103.257 69.5648 102.643 70.0518 101.944 69.9671C99.7837 69.6918 97.8779 67.9553 97.2002 65.6048C96.692 63.8471 96.819 61.8142 97.6026 59.5695C97.9837 58.4471 98.492 57.4095 98.979 56.3718C99.2755 55.7577 99.5508 55.1648 99.8049 54.5718C101.563 50.4424 102.156 45.9106 101.52 41.4636C101.287 39.8965 100.948 38.7318 100.44 37.7789C100.123 37.2071 99.7414 36.72 99.2967 36.3389C99.5084 36.3177 102.071 36.0636 102.325 36.1059C102.431 36.2753 102.537 36.4236 102.621 36.6142C103.49 38.2024 103.807 39.96 103.977 41.1248C104.676 46.0165 104.019 51.0142 102.092 55.5671C101.817 56.2236 101.52 56.8377 101.224 57.4518C100.758 58.4471 100.292 59.4001 99.9532 60.3953C99.3602 62.1318 99.2543 63.6565 99.6143 64.9059ZM100.652 43.0518C100.017 41.7389 99.4873 40.3412 99.8049 39.3883C99.8261 39.3036 99.8684 39.2189 99.9108 39.1553C100.165 39.833 100.356 40.6377 100.483 41.633C100.546 42.0989 100.61 42.5859 100.652 43.0518ZM103.723 36.4236C104.803 36.8048 105.777 37.5248 106.412 38.4777C107.09 39.473 107.492 40.8071 107.725 42.6495C107.81 43.4118 107.873 44.1953 107.937 45.0212C108 45.9106 108.064 46.8212 108.191 47.7318C107.196 46.0377 106.2 44.4283 105.226 42.9248C105.184 42.2683 105.12 41.6118 105.014 40.9765C104.866 39.7906 104.548 38.0542 103.723 36.4236ZM109.377 36.5083C110.372 37.9906 110.965 39.8118 111.261 42.2259C111.367 43.0942 111.431 43.9412 111.494 44.7671C111.558 45.7624 111.643 46.7153 111.77 47.6471C112.257 50.993 113.633 54.1695 115.73 56.8165C116.725 58.0659 117.699 58.9553 118.694 59.5059C119.838 60.1412 121.108 60.3742 122.167 60.12C122.845 59.9718 123.501 60.3742 123.671 61.0518C123.756 61.3695 123.692 61.7083 123.523 62.0048C123.353 62.2801 123.078 62.4918 122.739 62.5553C121.066 62.9365 119.181 62.64 117.487 61.6871C116.196 60.9671 114.967 59.8871 113.781 58.3624C111.41 55.3765 109.864 51.7765 109.313 48.0071C109.165 46.9695 109.08 45.9318 109.017 44.9153C108.953 44.0895 108.89 43.2848 108.805 42.5012C108.551 40.4895 108.085 39.0071 107.323 37.8636C106.348 36.4024 104.718 35.4283 103.003 35.1106C103.003 35.0895 102.981 35.0895 102.981 35.0683C103.257 34.6448 103.384 34.1153 103.32 33.5648C103.299 33.4165 103.278 33.2895 103.236 33.1412C103.617 33.0565 103.998 32.9506 104.379 32.8448C106.348 33.48 108.17 34.7295 109.377 36.5083ZM76.5532 14.6542C77.8238 9.72005 80.3438 8.19534 81.3179 8.25887C81.7414 8.28005 82.5884 9.0424 83.3296 9.72005C84.6426 10.9059 86.1249 12.24 87.7555 12.4095C88.6026 12.4942 90.4873 12.3036 92.8802 12.0283C97.5602 11.52 105.396 10.673 106.899 12.2824C108.043 13.4895 107.683 14.3577 107.301 15.353C106.984 16.1365 106.603 17.1106 107.428 18.0212C108 18.6565 109.483 18.953 112.278 19.4612C114.65 19.8848 117.339 20.3718 119.33 21.2189C119.563 21.3248 119.753 21.4095 119.944 21.4942C120.219 21.9389 120.283 22.5742 119.944 22.913C119.584 23.273 118.864 23.2095 118.228 23.1459L110.436 22.1295C108.932 21.9389 107.407 21.6636 106.581 20.6259C106.094 19.9906 105.925 19.1436 105.734 18.2542C105.607 17.5977 105.48 16.92 105.184 16.2848C104.188 13.9342 101.69 12.9177 99.6779 12.7059C97.6026 12.4942 95.5484 12.9812 93.579 13.4471L93.2826 13.5106C91.2073 13.9977 89.1955 14.4 87.2684 14.04C85.7437 13.7648 84.2826 13.0024 83.2026 11.88C83.012 11.6895 82.9273 11.3718 82.8426 11.0118C82.6308 10.2283 82.3343 9.14828 80.6614 8.80946C80.5132 8.78828 80.3437 8.80946 80.2167 8.91534C80.1532 8.95769 80.1108 9.0424 80.0685 9.10593C79.8143 9.65652 79.0732 11.52 79.8143 13.4259C80.3649 14.8659 81.6143 15.9671 83.5202 16.7506C87.332 18.3177 92.7743 17.7248 96.7555 17.3012C98.8732 17.0683 100.694 16.8777 101.52 17.0895C102.431 17.3224 102.41 17.6612 102.219 18.8259C102.05 19.8848 101.796 21.3459 103.087 22.7012C104.421 24.0989 108.043 24.9036 113.845 25.073C113.612 25.2 113.379 25.3271 113.146 25.433C110.478 26.6612 107.492 27 104.654 27.72C101.88 28.4189 99.0637 29.6048 97.3908 31.8918C95.0826 32.04 92.9861 32.04 91.1014 31.913C91.1226 31.8918 91.1226 31.8706 91.1437 31.8283C91.419 31.2353 91.4826 30.5365 91.6943 29.9012C92.012 28.9271 92.6684 28.1012 93.3249 27.3177C95.019 25.2424 96.692 23.1671 98.3861 21.113C96.9249 21.4095 95.6543 22.2989 94.6167 23.3789C93.579 24.4589 92.1602 25.4542 91.2285 26.6189C90.1273 27.9953 89.3437 29.0753 88.0096 30.2189C87.6284 30.5577 87.2684 31.0236 86.9084 31.4683C84.4943 31.0871 82.5673 30.5153 81.0849 29.9648C81.1908 29.3295 81.2755 28.7365 81.4873 28.1224C81.7837 27.2118 82.1861 26.3436 82.3555 25.3906C82.6096 24.12 82.4614 22.7859 81.9532 21.6C81.8473 21.3671 81.6779 21.0918 81.4026 21.0918C81.1696 21.0918 81.0002 21.3248 80.8943 21.5577C79.9626 23.5483 80.7673 26.153 79.4967 27.953C79.2637 28.2918 78.9461 28.6095 78.7343 28.9695C76.5108 27.8259 75.4943 26.8095 75.4732 26.7883C75.4096 26.7248 75.3673 26.6824 75.3037 26.6189C75.452 23.04 75.7908 17.6824 76.5532 14.6542ZM72.9532 27.4236C73.1861 27.2118 73.4826 27.1059 73.8002 27.1059C74.139 27.1059 74.4779 27.233 74.732 27.5083C74.8167 27.593 76.5955 29.4142 80.6402 30.9389C84.4096 32.3577 90.9743 33.7977 100.885 32.6542C101.563 32.5695 102.198 33.0565 102.261 33.7553C102.346 34.433 101.859 35.0683 101.16 35.1318C98.6402 35.4283 96.1837 35.5765 93.8755 35.5765C78.8826 35.5765 73.1226 29.4565 72.8896 29.2024C72.6567 28.9483 72.5508 28.6306 72.572 28.313C72.5508 27.953 72.699 27.6353 72.9532 27.4236ZM44.7885 81.9106C43.3273 76.553 43.2637 70.4542 44.5979 64.2495C49.172 42.8612 62.8943 34.8353 70.6661 31.9553C70.7508 31.913 70.8567 31.8918 70.9414 31.8495C71.5979 32.3153 72.3602 32.6542 72.8261 33.2895C73.5249 34.2212 73.4614 35.5553 72.932 36.593C72.4026 37.6306 71.5343 38.4353 70.6661 39.2189C69.7979 40.0024 68.9085 40.8071 68.4002 41.8448C68.1461 42.3742 68.0614 43.1577 68.5908 43.4118C69.0779 43.6448 69.6073 43.2001 69.9673 42.7765C71.3649 41.1671 72.7626 39.5789 74.1602 37.9695C74.7532 37.2918 75.3673 36.593 76.1932 36.2753C77.019 35.9365 78.1202 36.0848 78.5861 36.8471C78.9461 37.44 78.819 38.2448 78.5014 38.8589C78.1837 39.473 77.6755 39.9812 77.252 40.553C76.0449 42.1624 73.8637 45.6777 75.7908 46.2283C79.772 47.3718 81.4661 39.7483 85.5108 38.8377C87.0567 38.4989 88.6449 38.52 90.2332 38.5624C93.092 38.6259 95.972 38.6895 98.8308 38.753C98.8732 38.753 98.9155 38.753 98.9579 38.753C98.9155 38.8377 98.8732 38.9436 98.852 39.0283C98.259 40.8071 99.5508 43.2 100.588 45.1059C100.652 45.2118 100.694 45.3177 100.758 45.4236C100.694 48.4095 100.059 51.3742 98.8943 54.1483C98.6402 54.7201 98.3861 55.313 98.0896 55.9059C97.6026 56.9436 97.0943 58.0236 96.6708 59.2095C95.8237 61.6448 95.6755 63.8895 96.2473 65.8801C97.0308 68.6118 99.2967 70.6659 101.859 70.9836C101.944 71.0048 102.05 71.0048 102.134 71.0048C103.299 71.0048 104.273 70.1365 104.4 68.993C104.485 68.3789 104.316 67.7859 103.934 67.2989C103.553 66.8118 103.024 66.5153 102.41 66.4306C101.668 66.3459 100.906 65.5624 100.631 64.6095C100.334 63.5718 100.44 62.2589 100.97 60.7342C101.287 59.8024 101.732 58.8706 102.198 57.8965C102.494 57.2824 102.791 56.6259 103.087 55.9695C103.405 55.2283 103.68 54.4871 103.934 53.7248C104.4 55.2071 104.845 56.7106 105.247 58.2142C106.412 62.64 107.259 67.1718 107.767 71.6824C108.339 76.913 108.657 84.5577 104.781 90.2542C101.139 95.633 93.8332 98.8942 84.7696 99.2118C69.8826 99.7624 54.9532 93.2824 44.7885 81.9106ZM35.259 135.085C33.5861 129.748 29.5202 113.104 38.0755 98.8095L47.6685 99.9318C46.0167 101.584 44.6826 103.32 43.6449 105.099C43.6238 105.12 43.6237 105.141 43.6026 105.162C40.532 110.435 39.939 116.026 40.1085 120.304C40.2567 124.158 41.0402 127.694 42.0143 130.511C42.0143 130.595 42.0567 130.659 42.099 130.722C42.8402 132.819 43.6449 134.471 44.3438 135.487C42.6285 135.424 39.2826 135.254 35.259 135.085ZM106.391 123.925L106.179 124.073C106.094 124.137 106.031 124.221 105.988 124.327C105.48 124.602 104.908 124.899 104.273 125.174C97.9626 127.504 89.7037 130.447 81.9108 131.887C74.8379 133.179 52.9202 130.257 52.7085 130.235C52.6873 130.235 52.6661 130.235 52.6449 130.235L42.9038 129.918C42.0355 127.292 41.2943 123.946 41.1461 120.261C40.9979 116.195 41.5485 110.901 44.3861 105.904L52.2426 105.713C52.3273 105.713 52.412 105.692 52.4755 105.649C52.5179 105.628 57.3673 103.087 62.9367 101.859C67.1508 103.214 71.9155 103.913 77.2096 103.913C83.1814 103.913 88.4755 103.405 93.092 102.388C92.4779 103.235 91.6731 103.955 90.7837 104.421C87.7132 106.031 81.5932 109.101 81.5296 109.122C81.4026 109.186 81.2967 109.313 81.2543 109.44C80.8096 110.986 81.5296 111.388 82.6308 111.981C82.8214 112.087 83.012 112.193 83.2237 112.32C83.1814 112.362 83.1602 112.426 83.139 112.489C82.3979 114.565 80.852 116.301 78.8614 117.254C78.6073 117.381 78.4802 117.699 78.6073 117.953C78.692 118.144 78.8826 118.249 79.0732 118.249C79.1579 118.249 79.2214 118.228 79.3061 118.207C81.5296 117.148 83.2873 115.2 84.1343 112.849C84.1555 112.786 84.1767 112.701 84.1555 112.638L92.5837 112.447C91.8214 113.697 91.0379 114.798 90.2543 115.56C87.1837 118.567 74.4567 126.042 74.3296 126.127C74.0755 126.275 73.9908 126.593 74.139 126.847C74.1602 126.889 74.1814 126.911 74.2237 126.953L74.2449 126.974C74.2661 126.995 74.2873 127.017 74.3085 127.038L74.3296 127.059C74.372 127.08 74.3932 127.101 74.4355 127.101C74.4779 127.101 74.5202 127.122 74.5626 127.122C74.5626 127.122 74.5626 127.122 74.5837 127.122H74.6049C74.6261 127.122 74.6685 127.122 74.6896 127.101C74.7108 127.101 74.7108 127.101 74.732 127.101C74.7743 127.08 74.8167 127.08 74.859 127.059C75.3885 126.741 87.8402 119.435 90.9955 116.344C92.012 115.348 93.0073 113.845 93.9602 112.235C93.9602 112.235 93.9602 112.214 93.9814 112.214C94.8073 110.817 95.5696 109.334 96.2684 107.979C96.6284 107.259 96.9884 106.581 97.3273 105.967C97.4332 105.755 97.539 105.565 97.6449 105.374C97.7508 105.184 97.8567 105.014 97.9414 104.866C98.2379 104.4 98.4708 104.04 98.6614 103.892C99.212 103.426 100.25 102.875 101.224 102.6C101.986 102.367 102.706 102.304 103.151 102.558C103.596 102.812 103.744 103.447 103.574 104.464C103.003 107.852 97.2426 118.377 97.2002 118.482C97.2002 118.482 97.2002 118.504 97.179 118.504C94.5108 122.591 90.8261 126 86.5061 128.329C86.252 128.478 86.1673 128.795 86.2943 129.049C86.379 129.219 86.5696 129.325 86.7602 129.325C86.8449 129.325 86.9296 129.304 87.0143 129.261C91.4614 126.847 95.2732 123.332 98.0473 119.097L104.083 115.073L104.866 116.28C104.972 116.428 105.141 116.513 105.311 116.513C105.417 116.513 105.501 116.492 105.607 116.428C105.84 116.259 105.925 115.941 105.756 115.708L104.887 114.374C106.814 111.134 111.685 103.151 112.85 102.007C113.4 101.478 114.12 101.139 114.819 100.864C115.603 100.567 116.428 100.355 117.276 100.355C117.53 100.355 117.805 100.377 118.038 100.461C118.398 100.588 118.61 100.864 118.673 101.224C118.758 101.838 118.059 103.765 116.958 106.242C116.09 108.169 114.988 110.435 113.803 112.68C113.803 112.701 113.781 112.722 113.781 112.722C111.516 117.085 109.038 121.341 107.746 122.929C107.598 123.078 106.751 123.671 106.391 123.925ZM113.781 121.871C112.405 122.231 110.626 122.845 108.551 123.607C109.652 122.485 111.748 118.906 113.697 115.285C115.391 114.607 116.598 114.099 117.297 113.76C118.631 113.104 120.177 112.045 121.68 111.028C123.607 109.737 125.577 108.381 126.847 108.042C128.796 107.513 131.188 107.195 131.633 108.741C131.739 110.245 119.859 120.261 113.781 121.871Z" fill="#003239"/>
</g>
<defs>
<clipPath id="clip0_1202_2590">
<rect width="144" height="144" fill="white"/>
</clipPath>
</defs>
</svg>
