<svg width="144" height="144" viewBox="0 0 144 144" fill="none" xmlns="http://www.w3.org/2000/svg">
<circle cx="76.5821" cy="85.7455" r="47.7818" fill="#B2DFE5"/>
<path d="M87.0541 93.6L93.5995 87.7091L125.672 68.0727L115.854 32.7273L98.1814 58.9091L91.6359 39.2727L83.1268 52.3636L77.8905 51.7091H74.6177L71.9995 56.9455L68.7268 54.3273H63.4905V58.9091L60.2177 56.9455L55.6359 58.9091L52.3632 62.1818H49.0905L43.8541 66.1091L41.8905 76.5818L43.8541 84.4364L30.7632 112.582V117.818L51.0541 106.036V112.582L81.8177 109.964L80.5086 102.109L87.0541 93.6Z" fill="white"/>
<path d="M126.072 68.7888C125.218 65.8536 124.384 62.8365 123.571 59.8451C122.758 56.828 121.945 53.8161 121.152 50.8196C120.359 47.8025 119.567 44.8111 118.81 41.8553C118.058 38.8792 117.302 35.944 116.647 33.0496V33.0291C116.606 32.8092 116.468 32.6303 116.269 32.4922C115.992 32.3337 115.675 32.3337 115.415 32.4717C115.394 32.4308 115.353 32.4104 115.333 32.3746C114.775 31.7609 113.768 30.7076 111.922 29.0404C111.901 29.02 111.861 28.9995 111.84 28.9791C111.523 28.7797 111.124 28.8819 110.93 29.1785L110.909 29.2194C108.388 33.1671 104.088 40.3263 96.7503 52.9205C95.8555 48.6966 94.9043 44.2939 93.9736 39.85C93.8918 39.4921 93.6361 39.2159 93.2986 39.1137V38.8733C93.2577 37.9017 93.0429 36.158 92.506 33.1818C92.4651 32.9824 92.3679 32.7829 92.189 32.6448C91.8106 32.3278 91.2583 32.3892 90.9412 32.7625L90.9003 32.8034C89.3509 34.6852 87.3105 37.2881 84.6105 40.796C82.5088 43.5318 80.2486 46.508 78.0447 49.4637C77.0526 49.3818 76.0196 49.5455 75.089 50.0006C73.6981 50.6551 72.6293 51.8467 72.0566 53.2325C71.8163 53.074 71.5606 52.9359 71.3049 52.8336C70.6299 52.537 69.914 52.3785 69.2237 52.3171L69.0857 52.2967H68.9271H68.6305C68.4516 52.2967 68.2726 52.3171 68.0936 52.3376C67.7561 52.3785 67.4186 52.4347 67.0811 52.4961C66.4061 52.6342 65.7516 52.8336 65.1175 53.1097C64.4834 53.3859 63.8493 53.7438 63.2714 54.2398C62.9953 54.4802 62.714 54.7563 62.4788 55.0734C62.2384 55.3904 62.0441 55.7279 61.906 56.0859C61.8242 56.2444 61.7884 56.4234 61.7271 56.5819C61.5481 56.5001 61.3896 56.4438 61.1901 56.4029C60.1981 56.1472 59.1651 56.1626 58.2345 56.4234C57.2833 56.6637 56.4089 57.0779 55.6163 57.5944C54.8237 58.1313 54.0873 58.7859 53.4737 59.5989C53.1771 60.0131 52.901 60.4733 52.722 61.0255C52.6811 61.1227 52.6606 61.2454 52.6402 61.3426C52.543 61.3221 52.4407 61.3221 52.3436 61.3017C51.8476 61.2608 51.372 61.2812 50.9169 61.363C50.0067 61.5011 49.209 61.7977 48.4777 62.1352C47.7618 62.4931 47.1278 62.9278 46.5755 63.4851C46.1613 63.9198 45.701 64.3596 45.3073 64.7942C44.9084 65.2493 44.5709 65.7249 44.2743 66.1851C43.7016 67.1158 43.3795 68.0312 43.2056 68.8033C43.0471 69.555 43.0062 70.2095 43.0062 70.7465C42.8476 71.1045 42.6891 71.5596 42.5101 72.1732C42.3107 72.9095 42.1113 73.8402 41.9527 75.0674C41.8147 76.2794 41.7329 77.6242 41.7942 78.9539C41.7942 79.1124 41.8147 79.2914 41.8147 79.4499C41.8351 79.6084 41.8556 79.7669 41.8556 79.9254C41.8965 80.2425 41.917 80.5391 41.9527 80.8561C42.0346 81.4698 42.0908 82.0476 42.1726 82.5998C42.3312 83.689 42.4897 84.6249 42.6278 85.2998C40.2857 89.4828 37.0947 95.2766 32.7687 103.31C30.4472 107.616 28.008 112.177 25.5483 116.8C25.308 117.256 25.4665 117.854 25.9472 118.089C27.0006 118.662 28.0489 119.219 29.0818 119.797C29.1022 119.935 29.1636 120.053 29.2403 120.176C29.5369 120.61 30.1352 120.733 30.5698 120.431C37.2534 115.947 43.9579 111.406 49.909 107.361C49.909 107.443 49.909 107.499 49.9295 107.581V107.719V107.836V108.25C49.9499 108.726 49.9908 109.243 50.0266 109.759C49.234 109.938 48.4415 110.137 47.6641 110.393H47.6437C47.3266 110.49 47.1067 110.792 47.1272 111.145C47.4851 117.711 47.8226 123.878 48.1192 129.451C48.1601 130.147 48.201 130.842 48.2368 131.512C48.2368 131.65 48.2778 131.911 48.3187 132.105L48.4158 132.422L48.5539 132.719C48.7533 133.097 49.0295 133.414 49.3465 133.649C49.6636 133.905 50.0011 134.084 50.3795 134.207C50.7374 134.324 51.1158 134.386 51.4891 134.386C51.6681 134.406 51.8675 134.365 52.0465 134.345C52.2255 134.304 52.4045 134.283 52.5834 134.227C52.6653 134.207 52.7624 134.166 52.8391 134.145L53.059 134.048C53.1971 133.987 53.3556 133.931 53.4937 133.849C54.6647 133.312 55.6772 132.637 56.5874 131.926C57.4977 131.21 58.3107 130.458 59.0675 129.742C59.4459 129.384 59.8039 129.027 60.1567 128.709C60.5147 128.392 60.8726 128.116 61.2459 127.896C61.9823 127.462 62.7954 127.324 63.4856 127.538C64.1811 127.758 64.7129 128.254 65.1118 128.766C65.526 129.303 65.7868 129.855 66.0629 130.351C66.3391 130.847 66.6203 131.302 66.9169 131.64C67.2135 131.977 67.5101 132.233 67.7709 132.391C68.0266 132.55 68.2464 132.647 68.405 132.688C68.5635 132.729 68.6453 132.729 68.6453 132.729C70.3123 133.286 72.138 132.33 73.5238 131.338C74.9147 130.346 76.4794 129.216 78.2641 129.456C80.2277 129.696 81.3169 131.42 82.7845 132.611C82.8254 132.729 82.8817 132.852 82.9226 132.969C83.3368 133.844 84.0118 134.575 84.9067 135.03C85.3618 135.25 85.8783 135.388 86.3947 135.408C86.9112 135.429 87.4072 135.327 87.8623 135.168C88.297 135.009 88.6959 134.79 89.0538 134.575C89.4118 134.355 89.7084 134.14 90.0254 133.9C90.639 133.465 91.2373 132.99 91.8305 132.509C92.9811 131.537 94.0498 130.463 95.0214 129.354C97.164 126.874 98.7493 124.158 99.8232 121.417C99.9408 121.08 100.079 120.742 100.202 120.384C100.319 120.047 100.421 119.689 100.539 119.351C100.718 118.656 100.917 117.981 101.056 117.291C101.137 116.912 101.194 116.519 101.235 116.12C101.91 115.03 102.446 113.977 102.881 112.965C103.377 111.794 103.776 110.684 104.032 109.651C104.073 109.533 104.093 109.395 104.129 109.273C104.149 109.155 104.19 109.017 104.211 108.894C104.272 108.654 104.308 108.398 104.369 108.178C104.451 107.703 104.548 107.248 104.589 106.828C104.707 105.974 104.748 105.202 104.768 104.507C104.768 104.169 104.788 103.832 104.768 103.535C104.748 103.239 104.748 102.942 104.727 102.681C104.686 102.144 104.63 101.71 104.569 101.311C104.507 100.932 104.451 100.615 104.39 100.36C104.328 100.104 104.272 99.9044 104.211 99.7459C104.113 99.4493 104.011 99.3317 103.955 99.3471C103.894 99.3675 103.837 99.4851 103.817 99.8022C103.796 99.9607 103.796 100.16 103.817 100.416V101.367C103.817 101.745 103.796 102.18 103.796 102.676C103.776 102.932 103.756 103.193 103.756 103.489C103.735 103.786 103.694 104.082 103.674 104.42C103.612 105.074 103.515 105.811 103.357 106.603C103.295 107.002 103.178 107.437 103.081 107.872C103.019 108.091 102.963 108.306 102.902 108.547C102.861 108.664 102.84 108.787 102.804 108.904C102.763 109.022 102.723 109.145 102.687 109.262C102.411 110.214 101.991 111.246 101.495 112.336C101.357 112.612 101.219 112.909 101.061 113.19C101.04 113.108 101.02 113.031 100.979 112.934C100.544 111.528 99.5522 110.255 98.2021 109.58C97.5271 109.262 96.8316 109.084 96.1209 109.063C95.405 109.043 94.6737 109.16 94.0192 109.498C93.3442 109.815 92.8072 110.352 92.434 110.924C92.0556 111.497 91.8408 112.116 91.6976 112.709C91.5595 113.302 91.5186 113.88 91.5186 114.432C91.5186 115.005 91.58 115.583 91.6976 116.14C91.8357 116.698 92.0556 117.25 92.3726 117.746C92.6897 118.242 93.0885 118.656 93.5436 119.014C93.9988 119.352 94.5152 119.607 95.0521 119.751C95.3282 119.812 95.6095 119.868 95.8856 119.889C96.1618 119.889 96.443 119.889 96.6987 119.848C97.2356 119.766 97.7316 119.592 98.1663 119.352C98.3044 119.27 98.4425 119.193 98.5652 119.111C98.5038 119.311 98.4271 119.51 98.3658 119.725C98.2686 120.042 98.1254 120.359 98.0078 120.676C97.0158 123.197 95.5277 125.713 93.5435 128.014C92.6487 129.068 91.6617 130.06 90.5674 130.95C90.0305 131.405 89.4782 131.844 88.9005 132.259C88.3277 132.693 87.7499 133.072 87.2539 133.251C86.7374 133.43 86.3027 133.409 85.863 133.21C85.4283 132.99 85.0294 132.576 84.7942 132.1C84.5539 131.624 84.5181 131.108 84.5948 130.453C84.6357 130.136 84.7124 129.779 84.7942 129.4C84.8351 129.201 84.876 129.001 84.9118 128.807C84.9323 128.725 84.9527 128.567 84.9732 128.429C84.9936 128.29 84.9936 128.173 84.9936 128.03C84.9732 127.534 84.8965 127.119 84.8351 126.782C84.7942 126.485 84.7738 126.107 84.7533 125.749C84.7329 125.013 84.7329 124.281 84.7533 123.53C84.7738 122.778 84.8147 122.001 84.8351 121.249C84.8556 120.477 84.876 119.7 84.8965 118.927C84.9783 115.854 85.055 112.781 85.1368 109.702V109.682C85.1368 109.426 85.0397 109.165 84.8402 108.986C84.6613 108.808 84.4618 108.649 84.2471 108.511C84.1857 108.47 84.1294 108.429 84.0885 108.414L84.0067 108.373C83.9863 108.373 83.9863 108.352 83.9454 108.352L83.8635 108.311C83.8022 108.291 83.7459 108.271 83.6846 108.25L83.5874 108.23C83.5465 108.209 83.5465 108.23 83.526 108.209L83.3471 108.168C82.8919 108.086 82.5135 108.071 82.1351 108.03C82.1556 107.197 82.1556 106.322 82.1351 105.432C82.1147 104.936 82.1147 104.44 82.0738 103.944C82.0738 103.827 82.0533 103.704 82.0533 103.586V103.423H81.9919H82.0329V103.402V103.341C82.0329 103.162 82.0533 102.942 82.0533 102.748C82.1147 101.914 82.1709 101.183 82.1709 100.646V100.39C82.4675 100.053 82.7846 99.695 83.1221 99.337C84.0937 98.5035 85.2238 97.5115 86.5329 96.3609C87.842 95.1899 89.3505 93.8603 90.9766 92.2343C91.7488 91.4621 92.5823 90.6081 93.3954 89.6365C98.0591 86.778 103.413 83.5052 109.518 79.7569C114.714 76.566 120.149 73.2115 125.662 69.8212C126.01 69.678 126.21 69.2235 126.072 68.7888ZM96.397 118.177C96.2385 118.197 96.08 118.197 95.9215 118.197C95.763 118.197 95.6249 118.156 95.4664 118.116C95.1698 118.034 94.8527 117.875 94.5715 117.66C94.2953 117.44 94.055 117.185 93.8556 116.868C93.6561 116.571 93.5181 116.193 93.4414 115.814C93.3442 115.415 93.3237 115.001 93.3237 114.546C93.3237 114.091 93.3851 113.636 93.4823 113.217C93.6817 112.363 94.1164 111.631 94.7914 111.314C95.4663 110.977 96.4789 111.018 97.2714 111.412C98.064 111.81 98.7186 112.624 99.0151 113.616C99.2555 114.367 99.2913 115.242 99.1737 116.152C98.8566 116.566 98.4987 116.985 98.0844 117.323C97.6089 117.758 97.0107 118.095 96.397 118.177ZM67.6743 89.0195C67.7919 90.211 68.1294 91.2388 68.5283 92.0519C68.8044 92.6246 69.1214 93.1053 69.4385 93.4991C68.9629 93.7189 67.7919 94.394 66.0686 95.4423C63.8289 96.8128 60.6533 98.7968 56.8846 101.195C50.1602 105.48 41.5132 111.075 32.7475 116.786C34.752 113.115 36.7157 109.505 38.5771 106.073C45.005 94.2096 48.6152 87.3114 50.5583 83.3435C51.6884 81.022 52.2662 79.7129 52.481 79.0021C53.0947 79.2424 53.7901 79.3805 54.5418 79.36C55.314 79.3396 56.168 79.1401 56.9043 78.6441C57.6407 78.1481 58.2338 77.4168 58.5919 76.5987C58.7709 76.1998 58.9089 75.7856 58.9907 75.3509C59.2873 75.5504 59.6044 75.7293 59.9214 75.8879C60.6936 76.2663 61.4862 76.4248 62.243 76.4248C63.7514 76.4657 65.0605 75.8521 65.8328 75.1157C66.4669 74.5225 66.8248 73.8884 67.0243 73.372C67.0652 73.4538 67.1061 73.5101 67.1419 73.5714C67.3822 73.9294 67.6379 74.2669 67.9345 74.5635C68.5072 75.1567 69.1464 75.6527 69.8573 75.9544C70.5527 76.2714 71.2839 76.3686 71.9385 76.3328C72.593 76.2919 73.1862 76.0925 73.6617 75.8163C74.1373 75.5197 74.4748 75.1618 74.6947 74.8038C74.8941 74.4868 75.0117 74.1902 75.0731 73.9294C76.0447 74.722 77.0163 75.4941 77.947 76.2715C76.6174 76.7879 75.3696 77.3607 74.1986 78.0357C73.4469 78.4704 72.7106 78.946 72.0356 79.4624C71.8771 79.6005 71.6981 79.7181 71.5396 79.8766C71.3811 80.0147 71.2225 80.1527 71.0845 80.3112C70.7879 80.6078 70.5271 80.9044 70.2509 81.2215C69.2384 82.4692 68.5072 83.8396 68.0879 85.1896C67.6737 86.4987 67.5567 87.828 67.6743 89.0195ZM74.7976 62.1216C75.4726 61.8813 76.2038 61.825 76.8788 61.9017C77.0577 61.9222 77.2163 61.9631 77.3748 61.9989C77.5538 62.0602 77.7123 62.1369 77.8913 62.2188L78.0293 62.3006L78.1879 62.3824L78.5254 62.5614C79.4202 63.0369 80.2896 63.4921 81.1844 63.9676C82.0793 64.4227 82.9486 64.8983 83.823 65.3738L83.9611 65.4556C83.9201 65.4761 83.8639 65.4966 83.823 65.517C83.6236 65.5988 83.4088 65.6755 83.1889 65.7727C83.0917 65.8136 82.969 65.8698 82.8514 65.9312C82.7338 65.9926 82.6111 66.0488 82.473 66.1102C81.9156 66.3659 81.302 66.6676 80.6475 66.8056C79.993 66.9437 79.3588 66.9028 78.6634 66.6471C77.9884 66.3914 77.3339 65.9108 76.6589 65.338C76.5004 65.2 76.3214 65.0414 76.1629 64.9034C76.0044 64.7449 75.8254 64.6068 75.6464 64.4483C75.3294 64.1517 75.0532 63.8551 74.8743 63.5738C74.7924 63.4357 74.7157 63.2977 74.6748 63.1596C74.6339 63.0215 74.6135 62.9039 74.6339 62.7607C74.7004 62.5409 74.7362 62.321 74.7976 62.1216ZM75.8868 51.7921C76.5209 51.4955 77.2367 51.3932 77.9118 51.475C78.5869 51.5569 79.2209 51.8125 79.7169 52.191C80.1516 52.5285 80.4891 52.9631 80.7703 53.4182C80.9084 53.6586 81.026 53.8733 81.1283 54.1137C81.2254 54.354 81.3073 54.5688 81.384 54.8296C81.6601 55.7807 81.7624 56.7114 81.8391 57.5653C81.9772 59.2733 82.0794 60.521 82.1561 61.4312C82.197 61.7687 82.2175 62.0653 82.2533 62.3261C82.2124 62.3056 82.1715 62.2852 82.1357 62.2443C81.5425 61.8659 80.847 61.4516 80.0749 61.017C79.8755 60.9198 79.676 60.7971 79.4613 60.6795C79.2618 60.5619 79.0062 60.4392 78.7658 60.342C78.2698 60.1426 77.7329 59.984 77.1397 59.9073C76.705 59.846 76.2448 59.846 75.7692 59.8869C75.4112 59.8869 75.0533 59.9482 74.7004 60.0045C74.6391 59.5903 74.5828 59.171 74.5214 58.7363C74.4601 58.3374 74.4038 57.9233 74.3425 57.4886C74.3016 57.2687 74.2811 57.0744 74.2453 56.834C74.2248 56.7164 74.2044 56.5937 74.1839 56.4965C74.1635 56.4352 74.1635 56.3994 74.143 56.3176C74.1226 56.2357 74.1021 56.1795 74.1021 56.0977C73.9641 55.5812 73.7442 55.1056 73.468 54.671C73.6265 54.1136 73.8669 53.5818 74.2197 53.1216C74.68 52.5642 75.2527 52.0886 75.8868 51.7921ZM63.43 57.504C63.4505 57.3864 63.4914 57.2637 63.5118 57.1665C63.5527 57.0694 63.5732 56.9467 63.6294 56.8495C63.7266 56.6296 63.8493 56.4353 63.9874 56.2563C64.1255 56.0773 64.3044 55.8984 64.5039 55.7398C65.276 55.1057 66.3704 54.6864 67.4799 54.4717C67.7561 54.4103 68.0373 54.3745 68.293 54.354C68.4311 54.3336 68.5691 54.3336 68.6919 54.3336H68.8709H69.0498C69.5663 54.395 70.0623 54.5126 70.497 54.712C70.9317 54.9114 71.2896 55.1671 71.5862 55.5046C71.8828 55.8421 72.0823 56.241 72.1999 56.6552L72.2203 56.7728C72.2203 56.8137 72.2408 56.87 72.2408 56.9109C72.2612 57.008 72.2817 57.1103 72.3021 57.2075C72.3431 57.4069 72.3635 57.6217 72.3993 57.8416C72.4607 58.2558 72.5169 58.6751 72.5783 59.0688C72.6601 59.6262 72.7368 60.1376 72.8186 60.654C72.6396 60.7512 72.4811 60.8534 72.3226 60.9506C71.9442 61.2063 71.6067 61.4875 71.3101 61.8046C70.7169 62.4182 70.2771 63.1137 69.9806 63.8091C69.684 64.5045 69.5459 65.2153 69.505 65.8902C69.4641 66.5652 69.5459 67.1789 69.684 67.7567C69.7658 68.0738 69.863 68.3704 69.9806 68.6516C70.0982 68.9687 70.2567 69.2857 70.4152 69.5823C70.6914 70.0579 71.0493 70.4925 71.4277 70.8914C71.5249 70.9886 71.6272 71.0908 71.7243 71.1675L72.0005 71.3874C72.1794 71.5459 72.3789 71.684 72.5578 71.8425C73.2942 72.4357 74.0255 73.034 74.7414 73.6068C74.7619 73.6273 74.7823 73.6273 74.8028 73.6477C74.8028 73.6477 74.8028 73.6682 74.7823 73.6682C74.6647 73.9085 74.5062 74.1642 74.2658 74.4403C74.0255 74.7165 73.7289 74.9773 73.3352 75.1562C72.5425 75.5347 71.3511 75.5705 70.3028 74.9977C69.7658 74.7216 69.2494 74.2818 68.8147 73.75C68.5948 73.4943 68.3801 73.1926 68.2011 72.8756C68.1397 72.7784 68.1397 72.7784 68.1039 72.6557C68.063 72.5739 68.0221 72.4767 68.0068 72.4C67.9454 72.2824 67.9096 72.1443 67.8483 72.0216C67.9863 70.9887 67.8483 69.9404 67.6488 68.9482C67.567 68.3755 67.429 67.721 67.2909 66.9438C67.1119 66.1102 66.9125 65.1591 66.5954 64.0495C66.4369 63.4921 66.2579 62.8989 66.0227 62.2852C65.9051 61.9682 65.7824 61.6511 65.6443 61.3341C65.5062 60.9966 65.3477 60.6591 65.1687 60.3216C64.8108 59.6466 64.3966 58.9511 63.8596 58.2404C63.742 58.0819 63.604 57.9234 63.4608 57.7853V57.7239C63.4096 57.6217 63.4095 57.5603 63.43 57.504ZM54.4453 61.9836V61.9427L54.4658 61.8456C54.4862 61.7842 54.5067 61.7075 54.5271 61.6461C54.6243 61.37 54.8033 61.053 55.0232 60.7717C55.4578 60.199 56.0561 59.6825 56.6902 59.2632C57.9583 58.4297 59.4873 58.036 60.6583 58.353C60.9753 58.4348 61.2719 58.5933 61.5327 58.7672C61.5941 58.8081 61.6708 58.8644 61.7117 58.9053C61.773 58.9666 61.8293 59.0024 61.8907 59.0638C62.0083 59.1814 62.1105 59.3041 62.2077 59.4218C62.6424 59.9945 63.0412 60.6132 63.3583 61.2064C63.5168 61.503 63.6549 61.7792 63.7929 62.0809C63.931 62.3775 64.0486 62.6741 64.1713 62.9553C64.4117 63.528 64.5856 64.065 64.7645 64.5815C65.1225 65.6144 65.3782 66.5247 65.6185 67.3377C65.8384 68.0895 66.0327 68.744 66.2117 69.281C66.452 70.273 66.6105 71.1832 66.5083 72.0167V72.0781C66.4878 72.1752 66.5083 72.2775 66.5492 72.3542C66.631 72.5127 66.6872 72.6713 66.7691 72.8298C66.7691 72.8502 66.7691 72.8502 66.7486 72.8707C66.5083 73.3258 66.0941 73.9804 65.3424 74.5173C64.964 74.7934 64.5293 75.0337 64.0129 75.1718C63.4964 75.3303 62.9237 75.3917 62.3049 75.3303C61.6913 75.269 61.0776 75.09 60.4998 74.7729C60.0242 74.5173 59.5691 74.1593 59.1293 73.7604C59.0884 71.9757 58.4543 70.3496 57.9174 68.8207C57.6208 68.0281 57.3242 67.215 56.9867 66.4019C56.8282 66.003 56.6287 65.5888 56.4497 65.2104C56.2708 64.8525 56.1122 64.4383 55.8924 64.0394C55.6929 63.6405 55.4577 63.2263 55.156 62.8121C54.9975 62.6127 54.8185 62.3979 54.5986 62.1985C54.5577 62.1576 54.5015 62.1167 54.4401 62.0809L54.4453 61.9836ZM43.6147 82.556C43.6351 81.9986 43.6351 81.4054 43.6351 80.8123V79.8816V79.406C43.6351 79.2475 43.6556 79.1094 43.6556 78.9509C43.6965 77.739 43.8141 76.4708 43.9522 75.3407C44.0902 74.1901 44.2283 73.2952 44.3306 72.564C44.4277 71.8481 44.4686 71.3162 44.4686 70.9174V70.6617C44.5505 70.2475 44.6476 69.7668 44.8061 69.2555C45.026 68.6214 45.3226 67.926 45.8186 67.21C46.0743 66.8521 46.376 66.4737 46.7289 66.1208C47.0868 65.7424 47.501 65.3691 47.9766 64.8936C48.6925 64.2186 49.8994 63.5641 51.2085 63.3646C51.5255 63.3236 51.863 63.3032 52.1801 63.3236C52.4767 63.3646 52.7733 63.4208 53.0341 63.5435C53.0954 63.564 53.1517 63.6049 53.213 63.6407C53.254 63.6611 53.2744 63.6816 53.3307 63.7225C53.4125 63.8043 53.5096 63.9015 53.6068 64.0191C53.8062 64.2748 53.9852 64.5918 54.1795 64.9293C54.3585 65.2668 54.5375 65.6452 54.7369 66.039C54.9363 66.4174 55.0949 66.7754 55.2738 67.1487C55.6113 67.9004 55.9284 68.6777 56.225 69.4702C56.542 70.2628 56.8386 71.0196 57.0789 71.7713C57.3193 72.523 57.4778 73.2798 57.5136 73.9753C57.5954 75.4019 57.0789 76.7929 56.1227 77.4884C55.6471 77.8463 55.0897 78.0458 54.4965 78.0816C53.9238 78.1429 53.3255 78.0611 52.809 77.9026C52.3948 77.785 51.9959 77.606 51.6584 77.3861L49.5363 75.5043C49.2959 75.2281 49.122 74.9878 48.9635 74.7884C48.6669 74.3895 48.488 74.1952 48.4266 74.231C48.3652 74.2719 48.4266 74.5276 48.626 75.0031C48.6669 75.1207 48.7232 75.2435 48.805 75.3815C48.3703 75.8162 47.4959 77.0691 45.8493 79.8662C45.2357 80.9196 44.4994 82.1878 43.63 83.7117C43.5993 83.3486 43.5993 82.9497 43.6147 82.556ZM89.6122 91.0037C88.0474 92.6094 86.5951 93.9798 85.3474 95.1866C84.0793 96.3985 82.9849 97.4263 82.0543 98.3418L81.9929 98.4032C81.4765 99.0168 81.0418 99.5742 80.6634 100.091C80.285 100.607 79.968 101.083 79.6918 101.517C79.1549 102.371 78.7816 103.046 78.5617 103.578C78.3214 104.095 78.2038 104.453 78.1628 104.688C78.1219 104.928 78.1424 105.025 78.2038 105.066C78.2651 105.107 78.3827 105.066 78.5413 104.887C78.6998 104.729 78.9401 104.432 79.2776 103.992C79.6151 103.558 80.0702 102.959 80.6685 102.208C80.689 102.187 80.7094 102.146 80.7299 102.126C80.6685 102.284 80.6327 102.443 80.5714 102.622C80.51 102.842 80.4538 103.057 80.4129 103.338C80.3924 103.593 80.3515 103.854 80.331 104.11C80.2697 104.585 80.2339 105.061 80.193 105.537C80.1316 106.37 80.0754 107.245 80.0549 108.058C79.9168 108.058 79.7583 108.037 79.6202 108.037C78.0351 107.976 76.4446 107.94 74.8799 107.94C71.7247 107.92 68.6105 107.981 65.5169 108.119C62.4231 108.257 59.3856 108.477 56.4146 108.814C54.9266 108.993 53.4386 109.193 51.9914 109.469H51.9709V108.298C51.9709 108.16 51.9504 108.022 51.9504 107.884C51.9504 107.843 51.93 107.705 51.93 107.628C51.9095 107.546 51.9095 107.49 51.8891 107.408C51.8482 107.153 51.7919 106.953 51.7306 106.774C51.6692 106.595 51.6129 106.457 51.5516 106.319C53.6738 104.872 55.6782 103.481 57.5243 102.213C61.2112 99.6764 64.2691 97.5338 66.4119 95.9844C68.0584 94.7929 69.1476 93.9799 69.5261 93.6218C69.6437 93.7599 69.7459 93.8775 69.8636 94.0002C70.2982 94.4554 70.6971 94.7519 70.9732 94.9309C71.2494 95.1099 71.4079 95.1713 71.4283 95.1508C71.4488 95.1099 71.3312 94.9923 71.0908 94.7724C70.8505 94.5525 70.5181 94.215 70.1602 93.719C69.7817 93.2434 69.388 92.6093 69.0709 91.7962C68.7539 91.0036 68.4982 90.0319 68.4573 88.9377C68.396 87.8485 68.5749 86.657 69.03 85.445C69.4647 84.2331 70.1806 83.0058 71.1522 81.8962C71.3925 81.6201 71.6482 81.3388 71.9244 81.1036C72.0624 80.986 72.2005 80.8479 72.3386 80.7252C72.4766 80.6076 72.6352 80.4848 72.7937 80.3672C73.4073 79.9121 74.1028 79.4928 74.8391 79.099C76.3068 78.3269 77.9329 77.6724 79.6409 77.115C79.7585 77.0741 79.8812 76.9974 79.9784 76.8951C80.2341 76.5985 80.1983 76.1434 79.8966 75.8826H79.8761C78.5466 74.7525 77.1608 73.5815 75.7495 72.3695C75.0336 71.7763 74.3228 71.1576 73.6069 70.544C73.4279 70.3855 73.2489 70.2474 73.0699 70.0889L72.8143 69.869C72.7324 69.8076 72.6557 69.7309 72.5944 69.6491C72.3182 69.3525 72.0574 69.0355 71.858 68.6775C71.7199 68.4372 71.6177 68.1815 71.5205 67.9258C71.4592 67.7468 71.4029 67.5474 71.3824 67.3326C71.3006 66.9184 71.2648 66.4582 71.3211 65.9827C71.362 65.5071 71.5001 65.0111 71.7199 64.5151C71.9603 63.9781 72.3131 63.4617 72.8092 63.0066C72.8296 63.2265 72.891 63.4617 72.9472 63.6816C73.0444 63.9986 73.2029 64.2952 73.3819 64.5356C73.7398 65.0316 74.1336 65.41 74.5325 65.727C74.7319 65.8856 74.9109 66.0441 75.0898 66.1822C75.2688 66.3202 75.4682 66.4788 75.6626 66.6168C76.4347 67.1895 77.3091 67.7469 78.2603 68.023C78.7359 68.1611 79.2319 68.2429 79.7279 68.2225C80.224 68.202 80.6791 68.1049 81.0984 67.9668C81.9115 67.6702 82.5456 67.2713 83.0621 66.9134C83.1797 66.8316 83.3382 66.714 83.4763 66.6168C83.6143 66.5196 83.732 66.4174 83.8547 66.3202C84.095 66.1208 84.3098 65.9418 84.4888 65.7833C84.5297 65.7628 84.5501 65.7219 84.5859 65.7015L85.1791 66.039C85.5933 66.2793 86.0331 66.5145 86.4473 66.7549L86.6058 66.852L86.6876 66.8929C86.7081 66.9134 86.749 66.9338 86.749 66.9338C86.8103 66.9748 86.8461 66.9952 86.9075 67.0719C87.0251 67.1895 87.1632 67.3481 87.3064 67.5066C87.5825 67.8441 87.8433 68.2429 88.0785 68.6162C88.5746 69.4089 89.0092 70.2424 89.4285 71.0963C90.262 72.8043 90.9575 74.548 91.5506 76.2713C92.108 77.8974 92.5427 79.4622 92.8393 80.9706C93.1359 82.4791 93.3148 83.9059 93.2535 85.215C93.233 85.3735 93.233 85.532 93.2126 85.6905C93.1921 85.8491 93.1717 85.9871 93.1512 86.1457C93.1103 86.2837 93.0898 86.4423 93.054 86.5803L93.0336 86.6417V86.6621C93.0336 86.6826 93.0131 86.7031 93.0131 86.7235C92.9927 86.7644 92.9722 86.8207 92.9518 86.882C92.8546 87.1019 92.6961 87.3576 92.5376 87.5979C92.5171 87.6184 92.5171 87.6388 92.4967 87.6593C92.4557 87.7207 92.4148 87.7565 92.3995 87.8178C92.2819 87.9763 92.1592 88.1553 92.0211 88.3138C92.0006 88.3343 91.9802 88.3547 91.9597 88.3957C91.1824 89.357 90.3895 90.211 89.6122 91.0037ZM108.457 78.1327C103.496 81.1855 99.073 83.9265 95.0894 86.3657C95.1099 86.2276 95.1303 86.0896 95.1508 85.9515C95.1713 85.7521 95.1917 85.5526 95.1917 85.3788C95.2735 83.814 95.0945 82.2441 94.7775 80.6384C94.4604 79.0327 94.0053 77.3861 93.4276 75.6781C92.8139 73.873 92.0776 72.0679 91.2083 70.2832C90.7736 69.3884 90.298 68.4986 89.7406 67.6242C89.4645 67.1896 89.1679 66.7498 88.81 66.3151C88.631 66.0952 88.452 65.8805 88.1963 65.6606C88.0992 65.5634 87.9202 65.4407 87.7821 65.3231C87.7412 65.2822 87.7207 65.2822 87.685 65.2617L87.6031 65.2208L87.4446 65.1236C87.01 64.868 86.5497 64.6276 86.1151 64.3719L85.4401 63.9935L84.7651 63.6356C84.2896 63.3799 83.814 63.1191 83.3385 62.8839C83.4356 62.5464 83.5175 62.0708 83.5788 61.4367C83.676 60.506 83.7373 59.2174 83.6964 57.448C83.6555 56.5531 83.5993 55.5048 83.2822 54.2928C83.2618 54.2315 83.2413 54.1548 83.2208 54.0934C85.9976 50.3247 88.4981 46.8934 90.2623 44.357C91.1163 43.1298 91.8118 42.1173 92.2873 41.381C93.3203 46.3412 94.3328 51.24 95.3044 55.8778C95.3453 56.0364 95.422 56.1949 95.5447 56.333C95.9999 58.4347 96.455 60.5006 96.8947 62.5205V62.541C96.9356 62.7404 97.0737 62.9398 97.2731 63.0574C97.6515 63.2978 98.168 63.175 98.3828 62.7813C100.428 59.4267 102.392 56.195 104.192 53.183C107.684 47.691 111.489 41.6773 115.457 35.3729C115.974 37.6536 116.526 39.9547 117.104 42.2558C117.84 45.2319 118.592 48.2438 119.384 51.2609C120.157 54.278 120.949 57.3103 121.747 60.3274C122.483 63.1041 123.215 65.8604 124.007 68.6166C118.674 71.8638 113.458 75.0748 108.457 78.1327Z" fill="#003239"/>
<path d="M50.7784 46.5539C50.6812 46.6357 54.5267 53.6568 54.6852 53.7335C54.6648 53.6517 54.3682 50.1233 54.5267 46.6511C54.6085 43.1789 55.0994 39.7681 55.0994 39.7681C53.7289 40.1465 52.3841 40.5607 51.034 40.98C50.1238 38.0244 49.3875 34.951 48.871 31.8164C47.5619 37.4312 46.9074 43.1993 46.9688 49.0139C48.1961 48.1395 49.4693 47.326 50.7784 46.5539Z" fill="#F97D07"/>
<path d="M110.342 86.6971C110.025 87.7096 109.728 88.7016 109.432 89.7295C107.212 89.0954 105.008 88.3029 102.845 87.3313C105.801 90.4455 109.135 93.1813 112.761 95.5233C112.761 94.3932 112.761 93.263 112.822 92.1534C112.822 92.2506 118.754 92.7108 118.871 92.6495C118.81 92.629 116.494 91.3608 114.387 89.8727C112.244 88.3847 110.342 86.6971 110.342 86.6971Z" fill="#F97D07"/>
<path d="M30.7233 84.9116C30.7028 85.0496 39.0534 87.6678 39.2324 87.6269C39.1506 87.586 36.2563 85.0087 33.7403 82.1502C31.163 79.353 28.9796 76.2797 28.9796 76.2797C28.187 77.6092 27.4301 78.9593 26.6785 80.3245C23.7024 78.6779 20.8284 76.8114 18.0312 74.7302C21.2426 80.166 25.1137 85.203 29.537 89.7442C29.8898 88.1078 30.2886 86.4967 30.7233 84.9116Z" fill="#F97D07"/>
<path d="M68.947 48.2989C69.0442 48.258 69.0646 48.079 68.9879 47.6648C69.0288 47.2097 69.0697 46.4938 69.1464 45.5631C69.2436 44.5915 69.3459 43.4205 69.4839 42.05C69.6015 40.8381 69.7038 39.4727 69.801 37.9846C70.3942 38.3221 71.0129 38.721 71.6471 39.1147C72.501 39.6721 73.4317 40.2653 74.4442 40.7817C74.5618 40.8431 74.7203 40.8635 74.8584 40.8226C75.1754 40.7408 75.3544 40.4238 75.2726 40.1067V40.0863C74.4186 36.8135 73.4471 33.1829 72.4141 29.2965C72.8487 29.5164 73.268 29.7516 73.7232 29.9715C74.1987 30.2118 74.6948 30.4675 75.1908 30.7078C75.4311 30.8254 75.6868 30.9482 75.9425 31.0658C76.0806 31.1271 76.1982 31.1834 76.3414 31.2448C76.4232 31.2652 76.4794 31.3061 76.5817 31.3419C76.6431 31.3624 76.6789 31.3828 76.7607 31.4033C76.7811 31.4033 76.8016 31.4033 76.8425 31.4237H76.9448H77.0266H77.1084H77.1493C77.1698 31.4237 77.1493 31.4237 77.2107 31.4033C77.2925 31.3828 77.3897 31.3419 77.4664 31.2857C77.5073 31.2652 77.5482 31.2243 77.584 31.2039C77.6249 31.1629 77.6453 31.1425 77.6811 31.0862C77.7629 30.9686 77.8192 30.8306 77.8396 30.672V30.4726C77.8396 30.4521 77.8396 30.4317 77.8192 30.4112C77.7987 30.3703 77.7987 30.3294 77.7783 30.2732C75.1601 23.2931 71.4118 16.3287 68.676 9.14837C68.5073 8.76485 68.1135 8.50917 67.6738 8.52962C67.1368 8.57053 66.7431 9.02564 66.7635 9.56257C67.0039 13.2291 67.2391 16.8801 67.459 20.4291C66.6255 20.0302 65.792 19.6365 64.9584 19.2376C64.7794 19.1558 64.58 19.12 64.3856 19.1558C63.8283 19.2376 63.455 19.749 63.5317 20.3063C63.5521 20.4649 63.5726 20.6029 63.593 20.7615C64.1504 24.4688 64.6618 27.8234 65.122 30.8353C63.8334 30.2421 62.601 29.6847 61.4504 29.1683H61.43C61.1897 29.0711 60.9135 29.0507 60.6578 29.1683C60.1823 29.3882 59.9624 29.9405 60.1823 30.416C67.0397 45.7978 68.5685 48.4573 68.947 48.2989ZM75.5129 29.0972C75.1549 28.9182 74.7765 28.7597 74.4237 28.5807C73.4725 28.1256 72.5214 27.65 71.5856 27.1745H71.5651C71.4066 27.0926 71.2072 27.0773 71.0077 27.1336C70.6089 27.2512 70.3736 27.6705 70.4912 28.0642C71.6418 32.0119 72.731 35.7398 73.7436 39.1097C73.2271 38.8131 72.7106 38.5165 72.1941 38.2148C71.2992 37.6983 70.4299 37.1819 69.5759 36.7882H69.5555C69.4941 36.7677 69.4379 36.7473 69.3561 36.7473C69.1004 36.7473 68.8805 36.9467 68.8805 37.2024C68.86 38.849 68.86 40.3166 68.8805 41.6257C68.9009 42.9348 68.9418 44.1263 68.9623 45.1183C68.9623 46.1871 68.9623 47.0206 68.9418 47.578C68.6248 46.0899 67.1163 42.0245 62.872 31.95C63.8436 32.4052 64.8765 32.8807 65.9248 33.3972C66.1038 33.4791 66.2827 33.5149 66.4822 33.4791C67.0191 33.3972 67.3924 32.9063 67.3157 32.3694C66.8606 29.2756 66.3441 25.8035 65.7663 21.9171C66.5384 22.275 67.3157 22.6535 68.1083 23.0268C68.2464 23.1086 68.4254 23.1239 68.6044 23.1239C69.1618 23.083 69.576 22.6074 69.5351 22.0552C69.3765 19.8154 69.2385 17.5347 69.0799 15.2336C69.893 17.0591 70.7469 18.8438 71.601 20.6285C72.9715 23.4461 74.3213 26.2795 75.5129 29.0972Z" fill="#0095A9"/>
<path d="M24.9494 44.8819C22.7096 42.1052 20.4085 39.2722 18.1073 36.4137C17.7698 35.9995 17.8311 35.386 18.2606 35.0792C18.5981 34.798 19.0737 34.798 19.4112 35.0178C25.7982 39.2826 32.9015 42.811 39.0685 46.9786C39.0838 46.9991 39.1247 47.0195 39.1656 47.0604L39.2065 47.1013C39.2423 47.1422 39.2832 47.1985 39.3242 47.2599C39.4009 47.3979 39.4418 47.5564 39.4418 47.6945C39.4418 47.7712 39.4213 47.8121 39.4213 47.853C39.4213 47.8939 39.4009 47.9502 39.3804 47.9911C39.3395 48.0729 39.3037 48.1701 39.2423 48.2314L39.2014 48.2724L39.181 48.2928C39.1605 48.2928 39.1401 48.3133 39.1196 48.3337C39.0992 48.3542 39.0787 48.3542 39.0583 48.3746L39.0173 48.3951L38.956 48.4155C38.9151 48.436 38.8946 48.4564 38.8742 48.4564C38.7923 48.4974 38.7565 48.4974 38.6952 48.5178C38.6134 48.5383 38.5367 48.5587 38.4548 48.5792C38.2963 48.615 38.1583 48.6559 38.0202 48.6763C37.7441 48.7172 37.4833 48.7735 37.2071 48.8144C36.6701 48.9116 36.1383 48.9883 35.6014 49.0701C35.1258 49.1314 34.6298 49.2081 34.1542 49.2695C37.2326 51.8263 40.1269 54.2245 42.7247 56.4081L42.7451 56.4286C43.0059 56.628 43.0264 57.0013 42.827 57.2416C42.7247 57.3592 42.5866 57.4206 42.4485 57.441C41.3184 57.5996 40.2292 57.6558 39.1962 57.6967C38.4395 57.7376 37.7287 57.7734 37.0332 57.8348C37.8259 59.1082 38.5418 60.274 39.135 61.3275C39.8099 62.5138 40.4031 63.5467 40.8787 64.3803C41.3542 65.1729 41.7276 65.7865 41.9679 66.1854C42.2849 66.4871 42.3667 66.6609 42.3054 66.7427C42.0855 67.1007 39.2879 65.7916 24.7911 57.2006C24.3564 56.9245 24.1979 56.3518 24.474 55.9018C24.6121 55.6666 24.8524 55.5285 25.1081 55.4671H25.1286C26.3814 55.2319 27.6904 54.9916 29.0967 54.7154C26.9745 52.5165 24.612 50.0773 22.0142 47.3773L21.6972 47.0398C21.3034 46.6461 21.3188 45.9916 21.7176 45.6132C21.8557 45.4751 22.0347 45.3984 22.2341 45.3575C23.1239 45.199 24.0392 45.0404 24.9494 44.8819Z" fill="#0095A9"/>
<circle cx="114.545" cy="94.9091" r="15.0545" fill="#F97D07"/>
<path d="M112.063 104.727V85.0909H117.028V104.727H112.063ZM104.727 97.3914V92.4268H124.363V97.3914H104.727Z" fill="white"/>
</svg>
