<svg width="144" height="144" viewBox="0 0 144 144" fill="none" xmlns="http://www.w3.org/2000/svg">
<path d="M52.3408 93.0982C51.7735 92.9891 51.2063 93.3382 50.7917 93.9928C50.0499 95.1928 50.0063 96.8073 50.639 98.0509C50.7044 98.16 50.8135 98.2473 50.9444 98.2473C50.9881 98.2473 51.0535 98.2255 51.0972 98.2037C51.2717 98.1164 51.3372 97.92 51.2499 97.7455C50.7044 96.6982 50.7699 95.3673 51.3808 94.3419C51.5772 94.0364 51.9044 93.6873 52.2099 93.7528C52.4063 93.7964 52.5808 93.6655 52.6026 93.4691C52.6463 93.3164 52.5154 93.12 52.3408 93.0982Z" fill="#003239"/>
<path d="M90.3921 91.8546C90.2175 91.7891 90.0212 91.8982 89.9557 92.0728C89.8903 92.2473 89.9994 92.4437 90.1739 92.5091C91.7448 93.0328 93.1194 94.2328 93.8175 95.7382C94.5157 97.2437 94.5812 99.0546 93.9703 100.604C93.9048 100.778 93.9921 100.975 94.1666 101.04C94.2103 101.062 94.2539 101.062 94.2975 101.062C94.4285 101.062 94.5594 100.975 94.6248 100.844C95.3012 99.12 95.2357 97.0909 94.4503 95.4328C93.643 93.7746 92.1375 92.4218 90.3921 91.8546Z" fill="#003239"/>
<path d="M90.7847 95.8473C90.632 95.7164 90.4138 95.7601 90.3047 95.891C90.1956 96.0437 90.2174 96.2619 90.3483 96.371C91.0247 96.9164 91.5047 97.7237 91.6574 98.5964C91.8102 99.4473 91.6356 100.385 91.1993 101.127C91.112 101.28 91.1556 101.498 91.3302 101.607C91.3956 101.629 91.4393 101.651 91.5047 101.651C91.6138 101.651 91.7447 101.585 91.8102 101.476C92.3338 100.582 92.5302 99.491 92.3556 98.4655C92.1593 97.4619 91.592 96.5019 90.7847 95.8473Z" fill="#003239"/>
<circle cx="79" cy="77" r="50" fill="#B2DFE5"/>
<path d="M81.3807 42.4146C82.0571 42.6109 82.7335 42.6982 83.4316 42.6982C84.6753 42.6982 85.8971 42.3927 87.0098 41.76C88.7335 40.8 89.9771 39.2291 90.5226 37.3309C91.6353 33.4255 89.3662 29.3236 85.4607 28.2109C81.5553 27.0982 77.4535 29.3673 76.3407 33.2727C75.2062 37.2218 77.4753 41.3018 81.3807 42.4146ZM77.1916 33.5564C77.9989 30.72 80.5953 28.8655 83.4098 28.8655C83.9989 28.8655 84.588 28.9527 85.1771 29.1055C88.6026 30.0873 90.588 33.6655 89.6062 37.0909C89.1262 38.7491 88.0353 40.1236 86.5298 40.9527C85.0244 41.7818 83.2789 42 81.6207 41.52C79.9626 41.04 78.588 39.9491 77.7589 38.4436C76.9298 36.96 76.7116 35.2146 77.1916 33.5564Z" fill="#F97D07"/>
<path d="M98 97.5V101.5L105.5 100.5L113 118L66.5 123.5L59.5 107H58.5V140.5L25.5 130L26 118L19 116.5L26 100.5L35 100L36 97.5L39.5 96.5H42.5L45.5 97.5V93.5L46.5 90.5L49 89.5H53L58.5 90.5L63 88L66.5 81L71 76.5L68.5 71L67.5 65L68.5 60L68 56L67.5 54.5L66 51.5V49L71 35L76.5 23.5L79.5 19L81 20H91L95.5 23.5V30L92 55.5L89 58.5L86.5 59.5L83.5 64V71L76.5 73.5L74.5 80.5L76.5 84L78.5 85L81 84H85.5L86.5 85V87.5L85.5 89.5H88L91 90.5L96 93L98 97.5Z" fill="white"/>
<path d="M80.5732 39.1419C81.0314 39.4692 81.5332 39.731 82.1005 39.8837C82.5368 40.0146 82.9732 40.0583 83.4096 40.0583C85.4823 40.0583 87.3805 38.7055 87.9696 36.611C88.3186 35.3892 88.1659 34.1019 87.555 32.9892C86.9441 31.8764 85.9187 31.0692 84.7187 30.7201C84.1514 30.5455 83.5623 30.5019 82.9732 30.5455C81.0096 30.7201 79.395 32.0728 78.8496 33.971C78.3041 35.9128 79.0023 37.9855 80.5732 39.1419Z" fill="#F97D07"/>
<path d="M106.188 100.756C106.167 100.713 106.167 100.691 106.145 100.669C106.079 100.56 105.97 100.495 105.839 100.495L98.2902 99.2728C98.312 96.96 97.8975 94.5382 96.392 92.9455C93.2939 89.6291 88.363 89.1709 86.5084 89.1055C86.8575 88.1891 87.3593 86.5528 86.8139 85.3091C86.5084 84.6109 85.9411 84.131 85.1339 83.8909C83.1266 83.3019 81.4466 83.7382 80.1157 84.0655C79.3084 84.2618 78.632 84.4364 77.9993 84.3928C76.7775 84.3055 76.2539 82.8437 75.9484 81.9709C75.8829 81.7964 75.8393 81.6437 75.7739 81.5128C75.7957 81.2509 75.9266 80.5309 76.1884 79.4619C76.8866 78.0219 77.2357 76.6909 77.4102 75.8619L78.5448 76.9528C78.7193 77.1273 79.0029 77.1273 79.1775 76.9528C80.1375 76.0146 80.4429 74.5964 80.5084 73.5273L81.6648 75.1419C81.752 75.2509 81.8611 75.3164 81.992 75.3382C82.123 75.3382 82.2539 75.2946 82.3411 75.2073C86.3775 71.2146 85.6793 67.3309 84.6539 65.0619C84.8284 65.0182 85.0029 64.9964 85.1775 64.9528C86.3993 64.6691 87.2284 63.5782 87.1629 62.3128L87.0539 60.3273C88.5375 59.8255 89.8029 58.8437 90.6539 57.5782C91.7884 59.5855 92.8357 61.1782 93.7302 62.3128C94.9302 63.8619 95.912 64.6037 96.7193 64.6037C96.9157 64.6037 97.0902 64.56 97.2866 64.4728C97.832 64.2109 98.2684 63.4691 98.6829 62.1164C100.472 56.1164 101.083 38.6182 99.9484 36.7419C99.5339 36.0655 98.792 35.2146 97.7448 34.2328L97.7229 34.2109C96.8939 33.4255 96.1084 32.7709 95.672 32.4219C95.912 29.4328 96.0211 26.5091 95.9993 23.6728C95.9775 21.1855 95.8684 18.7637 95.6284 16.4728C94.9302 9.14186 93.4029 4.90913 92.9448 3.7964C92.8793 3.62186 92.8357 3.51276 92.8357 3.51276C92.7702 3.38186 92.6829 3.29458 92.552 3.27276C92.4211 3.22913 92.2902 3.25095 92.1811 3.33822C91.9193 3.51276 85.8757 7.59276 78.6757 19.0473C77.2793 21.2728 75.9266 23.6509 74.6393 26.1164C73.9193 26.1819 72.5884 26.3346 71.2139 26.6182H71.192C69.7739 26.9019 68.7048 27.2073 67.9848 27.5782C66.0211 28.56 57.272 43.7237 55.6139 49.7891C55.2429 51.1637 55.2211 52.0364 55.5484 52.5382C55.832 52.9746 56.312 53.1928 57.0102 53.1928C57.6866 53.1928 58.5811 52.9964 59.6939 52.5819C61.1993 52.0364 63.1411 51.0982 65.4539 49.8328C65.4539 50.3782 65.4975 50.9237 65.6066 51.4691C65.8684 52.6691 66.4139 53.7819 67.2211 54.6982L66.0648 56.2255C65.3011 57.2509 65.4102 58.6909 66.3048 59.5855C66.5229 59.8037 66.7411 60.0219 66.9811 60.2182C63.403 62.6619 63.272 67.6582 63.272 67.8764C63.272 68.0509 63.3593 68.2037 63.512 68.2909C63.6648 68.3782 63.8611 68.3564 63.992 68.2473C64.1884 68.0946 65.1266 67.7455 66.1957 67.3746C64.3848 70.4946 65.2793 74.3782 65.323 74.5528C65.3666 74.7055 65.4757 74.8146 65.6066 74.88C65.7593 74.9237 65.912 74.9019 66.0429 74.8146C66.3266 74.6182 66.9375 74.4 67.5484 74.2473C66.9593 75.6218 66.8502 77.2364 67.0029 78.7855C65.0393 83.4982 63.163 87.2291 61.7229 88.2764C59.0611 90.2619 56.3557 89.6728 53.7157 89.0837C51.6648 88.6255 49.723 88.2109 48.0211 89.1273C44.923 90.7855 45.0102 94.8437 45.2066 96.48C42.2611 95.7382 37.112 94.7128 34.712 99.0764L26.5084 99.9491C26.4866 99.9491 26.4866 99.9491 26.4648 99.9491H26.443C26.443 99.9491 26.443 99.9491 26.4211 99.9491C26.3993 99.9491 26.3993 99.9709 26.3775 99.9709H26.3557C26.3557 99.9709 26.3557 99.9709 26.3339 99.9709C26.312 99.9709 26.2902 99.9928 26.2902 100.015C26.2902 100.015 26.2902 100.015 26.2684 100.015C26.2466 100.036 26.2248 100.058 26.203 100.08C26.203 100.08 26.203 100.08 26.203 100.102C26.1811 100.124 26.1811 100.145 26.1593 100.145C26.1593 100.145 26.1593 100.167 26.1375 100.167L18.3484 116.313C18.283 116.444 18.283 116.596 18.3484 116.705C18.4139 116.836 18.523 116.924 18.6757 116.945L25.5048 118.364L25.0902 130.276C25.0902 130.495 25.2211 130.669 25.4175 130.735L58.6902 140.596L58.9084 140.705C58.9084 140.705 58.9084 140.705 58.9302 140.705C58.9739 140.705 59.0175 140.727 59.0393 140.727C59.0611 140.727 59.083 140.727 59.1048 140.727L105.839 133.767C106.057 133.724 106.232 133.549 106.232 133.309V119.28L112.843 118.516C112.996 118.495 113.105 118.407 113.192 118.298C113.257 118.167 113.279 118.015 113.214 117.884L106.188 100.756ZM80.6393 69.8182L79.9411 68.771C79.8539 68.64 79.7229 68.5746 79.5702 68.5746C79.4175 68.5746 79.2866 68.6619 79.1993 68.771C79.1993 68.771 78.6757 69.5564 77.9557 70.211C77.7593 69.7091 77.4538 69.0328 76.9739 68.5309C76.8648 68.4 76.6684 68.3564 76.5157 68.4C76.3411 68.4437 76.232 68.5746 76.1884 68.7491C76.1884 68.771 75.5993 71.6073 73.5484 73.3091C73.6357 72.2182 73.5484 70.56 72.5229 69.8182C72.4357 69.7528 72.3484 69.7309 72.2611 69.7309C72.1957 69.7309 72.1302 69.7528 72.0648 69.7746C71.5629 69.9928 70.9739 70.2328 70.6248 70.3419C70.5157 69.6 70.5375 67.6146 70.9957 66.8073C71.083 66.6764 71.083 66.5019 70.9957 66.3709C70.9302 66.24 70.7775 66.1309 70.6248 66.1309L69.2066 66.0219C69.5339 65.3237 70.1666 64.1019 70.952 63.0546C70.9739 63.0764 71.0175 63.0764 71.0393 63.0982C71.2793 63.2291 71.5411 63.36 71.7811 63.4909C74.0284 64.6255 76.4502 65.28 78.9811 65.4328C79.2211 65.4546 79.483 65.4546 79.7229 65.4546C79.7666 65.4546 79.8102 65.4546 79.8539 65.4546C80.0939 65.4546 80.5957 65.4546 80.5957 65.4546C80.5957 65.4546 80.6393 65.4546 80.6611 65.4546C81.032 66.9382 81.2502 68.6619 80.6393 69.8182ZM66.5229 51.2509C66.3048 50.2037 66.3484 49.1128 66.6757 48.0873C70.0575 37.3528 74.2684 27.8837 79.1993 19.9419C81.2939 21.4473 83.7593 22.6255 86.3557 23.3891C88.5157 24 90.6757 24.3055 92.8139 24.3055C92.9884 24.3055 93.1629 24.3055 93.3375 24.3055C93.9266 24.2837 94.5157 24.2619 95.0829 24.1964C95.1048 33.6437 93.6648 44.0509 90.8066 55.1128C90.6757 55.5709 90.5229 56.0291 90.3048 56.4437C90.3048 56.4437 90.3048 56.4437 90.3048 56.4655C89.4975 57.9928 88.0793 59.1491 86.3557 59.6073C79.5048 61.3746 73.3957 59.6073 68.2029 54.3709C67.352 53.4982 66.7848 52.4291 66.5229 51.2509ZM19.4393 116.225L26.7702 101.04C26.8575 101.04 26.923 101.062 27.0102 101.084V100.953L58.3848 107.149L51.3157 122.836L19.4393 116.225ZM58.5811 139.658L26.0284 130.015L26.4211 118.604L51.512 123.818C51.5339 123.818 51.5775 123.818 51.5993 123.818C51.7739 123.818 51.9484 123.709 52.0139 123.556L58.5811 108.96V139.658ZM59.0611 106.364L37.7011 102.131C37.8102 101.825 37.9411 101.52 38.0939 101.236C39.1629 99.4037 41.432 98.3782 43.5048 98.7928C43.7011 98.8364 43.8757 98.7055 43.8975 98.5309C43.9411 98.3346 43.8102 98.16 43.6357 98.1382C41.2793 97.68 38.7048 98.8364 37.5048 100.909C37.3084 101.258 37.1557 101.629 37.0248 102L34.7775 101.564C34.8648 101.105 35.0175 100.625 35.2357 100.145C35.3011 100.015 35.3448 99.8837 35.4102 99.7528C35.4102 99.7528 35.4102 99.7309 35.432 99.7309C37.6139 95.4546 42.763 96.8073 45.5775 97.5491L45.6648 97.5709C45.8175 97.6146 45.9702 97.5709 46.1011 97.4619C46.2102 97.3528 46.2757 97.2 46.232 97.0473C46.232 97.0037 45.2066 91.7237 48.4793 89.9782C49.8757 89.2146 51.5775 89.5855 53.5629 90.0219C56.2466 90.6109 59.3011 91.2655 62.312 89.04C63.7084 87.9928 65.4757 84.72 67.3084 80.5091C67.3957 80.9019 67.4829 81.2728 67.5702 81.6437C66.8284 84.1964 65.6939 86.3346 64.232 87.9928C62.3557 90.0873 59.8684 91.3746 57.4029 91.5273C56.5739 91.5709 55.7229 91.5055 54.8939 91.4182C54.6757 91.3964 54.4575 91.3746 54.2393 91.3528C53.1702 91.2655 52.0357 91.2218 50.923 91.5055C49.7011 91.8109 48.6757 92.531 48.1302 93.4473C47.4757 94.56 47.5848 95.9782 48.3484 96.8509C48.4139 96.9164 48.5011 96.96 48.6102 96.96C48.6975 96.96 48.7629 96.9382 48.8284 96.8728C48.9593 96.7419 48.9811 96.5237 48.8502 96.3928C48.2611 95.7382 48.2175 94.6473 48.6975 93.7964C49.1339 93.0328 50.0066 92.4437 51.0539 92.16C52.0575 91.8982 53.1266 91.9419 54.152 92.0073C54.3702 92.0291 54.5884 92.0509 54.8066 92.0728C55.6575 92.1382 56.5302 92.2255 57.4029 92.1819C60.0429 92.0291 62.7048 90.6546 64.712 88.4291C66.0648 86.9237 67.112 85.0473 67.8757 82.8219C68.3557 84.3055 68.8357 85.3528 68.8793 85.4618C68.9666 85.6364 69.1193 85.7237 69.2939 85.7237C69.3593 85.7237 69.4029 85.7237 69.4684 85.7019C71.1484 85.0473 72.5011 84.1309 73.5484 83.1055L73.4175 84.1091C73.3084 84.96 73.2648 85.7891 73.6793 86.4655C74.1157 87.1637 74.9011 87.4691 75.4466 87.6437C77.432 88.2764 79.6793 88.1673 81.5993 87.36C81.6866 87.3164 81.7957 87.2728 81.8829 87.2291C82.5375 86.9455 83.2139 86.64 83.8029 86.8582C84.152 86.9891 84.4357 87.36 84.4793 87.7309C84.5229 88.1018 84.3266 88.5164 83.9993 88.7346C83.8466 88.8437 83.8029 89.04 83.8902 89.2146C83.9557 89.3237 84.0648 89.3673 84.1739 89.3673C84.2393 89.3673 84.3048 89.3455 84.3702 89.3019C84.9157 88.9528 85.2211 88.2982 85.1557 87.6437C85.0902 87.0109 84.632 86.4219 84.0429 86.2037C83.192 85.8764 82.363 86.2691 81.5993 86.5964C81.512 86.64 81.4248 86.6837 81.3375 86.7055C79.5702 87.4691 77.4975 87.5564 75.6648 86.9673C74.9448 86.7491 74.5084 86.4437 74.2684 86.0728C73.9629 85.5709 74.0066 84.8946 74.0939 84.1528L74.3339 82.2328C74.5084 82.0146 74.6829 81.7964 74.8575 81.5782C74.8575 81.6873 74.8793 81.7309 74.9011 81.7746C74.9448 81.8619 75.0102 82.0364 75.0757 82.2328C75.4466 83.2364 76.1011 85.1128 77.912 85.2655C78.6757 85.3309 79.483 85.1346 80.312 84.9164C81.6211 84.5891 83.083 84.2182 84.872 84.7419C85.4175 84.8946 85.7884 85.2 85.963 85.6364C86.4648 86.7709 85.7011 88.6909 85.3739 89.3237C85.3084 89.4764 85.3084 89.6509 85.3957 89.7819C85.4829 89.9128 85.6357 90 85.7884 90C85.8539 90 92.2029 89.8037 95.6939 93.5564C97.4829 95.4764 97.5048 98.9018 97.1775 101.564L59.0611 106.364ZM66.9157 122.88L59.7157 107.215L105.49 101.433L112.145 117.687L66.9157 122.88Z" fill="#003239"/>
</svg>
