<svg width="40" height="40" viewBox="0 0 40 40" fill="none" xmlns="http://www.w3.org/2000/svg"><path d="M3.33398 16.632V14.9987C3.33398 6.66536 6.66732 3.33203 15.0007 3.33203H25.0007C33.334 3.33203 36.6673 6.66536 36.6673 14.9987V24.9987C36.6673 33.332 33.334 36.6654 25.0007 36.6654H23.334" stroke="currentColor" stroke-width="2.5" stroke-linecap="round" stroke-linejoin="round"></path><path d="M21.666 18.3354L30.016 9.96875H23.3327" stroke="currentColor" stroke-width="2.5" stroke-linecap="round" stroke-linejoin="round"></path><path d="M30.0156 9.96875V16.6521" stroke="currentColor" stroke-width="2.5" stroke-linecap="round" stroke-linejoin="round"></path><path d="M18.334 26.918V31.418C18.334 35.168 16.834 36.668 13.084 36.668H8.58398C4.83398 36.668 3.33398 35.168 3.33398 31.418V26.918C3.33398 23.168 4.83398 21.668 8.58398 21.668H13.084C16.834 21.668 18.334 23.168 18.334 26.918Z" stroke="currentColor" stroke-width="2.5" stroke-linecap="round" stroke-linejoin="round"></path></svg>