<svg width="40" height="40" viewBox="0 0 40 40" fill="none" xmlns="http://www.w3.org/2000/svg"><path d="M36.666 8.58202V13.082C36.666 16.832 35.166 18.332 31.416 18.332H26.916C23.166 18.332 21.666 16.832 21.666 13.082V8.58202C21.666 4.83202 23.166 3.33203 26.916 3.33203H31.416C35.166 3.33203 36.666 4.83202 36.666 8.58202Z" stroke="currentColor" stroke-width="2.5" stroke-linecap="round" stroke-linejoin="round"></path><path d="M18.334 26.918V31.418C18.334 35.168 16.834 36.668 13.084 36.668H8.58399C4.83399 36.668 3.33398 35.168 3.33398 31.418V26.918C3.33398 23.168 4.83399 21.668 8.58399 21.668H13.084C16.834 21.668 18.334 23.168 18.334 26.918Z" stroke="currentColor" stroke-width="2.5" stroke-linecap="round" stroke-linejoin="round"></path><path d="M28.9646 18.3352V22.7018C28.9646 27.1852 27.1813 28.9685 22.6979 28.9685H18.3312V26.9185C18.3312 23.1685 16.8312 21.6685 13.0812 21.6685H11.0312V17.3018C11.0312 12.8185 12.8146 11.0352 17.2979 11.0352H21.6646V13.0852C21.6646 16.8352 23.1646 18.3352 26.9146 18.3352H28.9646Z" stroke="currentColor" stroke-width="2.5" stroke-linecap="round" stroke-linejoin="round"></path></svg>