<svg xmlns="http://www.w3.org/2000/svg" width="31" height="31" viewBox="0 0 31 31" fill="none"><path d="M18.5502 24.3126L20.4502 26.2126L24.2502 22.4126" stroke="currentColor" stroke-width="1.875" stroke-linecap="round" stroke-linejoin="round"></path><path d="M15.7001 14.0865C15.5751 14.074 15.4251 14.074 15.2876 14.0865C12.3126 13.9865 9.95012 11.549 9.95012 8.54902C9.93762 5.48652 12.4251 2.99902 15.4876 2.99902C18.5501 2.99902 21.0376 5.48652 21.0376 8.54902C21.0376 11.549 18.6626 13.9865 15.7001 14.0865Z" stroke="currentColor" stroke-width="1.875" stroke-linecap="round" stroke-linejoin="round"></path><path d="M15.4875 27.7611C13.2125 27.7611 10.95 27.1861 9.22505 26.0361C6.20005 24.0111 6.20005 20.7111 9.22505 18.6986C12.6625 16.3986 18.3 16.3986 21.7375 18.6986" stroke="#0095a9" stroke-width="1.875" stroke-linecap="round" stroke-linejoin="round"></path></svg>