<svg xmlns="http://www.w3.org/2000/svg" width="31" height="31" viewBox="0 0 31 31" fill="none"><path d="M15.4999 18H16.7499C18.1249 18 19.2499 16.875 19.2499 15.5V3H7.99994C6.12494 3 4.48745 4.03748 3.63745 5.56248" stroke="currentColor" stroke-width="1.90625" stroke-linecap="round" stroke-linejoin="round"></path><path d="M3 21.75C3 23.825 4.675 25.5 6.75 25.5H8C8 24.125 9.125 23 10.5 23C11.875 23 13 24.125 13 25.5H18C18 24.125 19.125 23 20.5 23C21.875 23 23 24.125 23 25.5H24.25C26.325 25.5 28 23.825 28 21.75V18H24.25C23.5625 18 23 17.4375 23 16.75V13C23 12.3125 23.5625 11.75 24.25 11.75H25.8625L23.725 8.01251C23.275 7.23751 22.45 6.75 21.55 6.75H19.25V15.5C19.25 16.875 18.125 18 16.75 18H15.5" stroke="currentColor" stroke-width="1.90625" stroke-linecap="round" stroke-linejoin="round"></path><path d="M10.5 28C11.8807 28 13 26.8807 13 25.5C13 24.1193 11.8807 23 10.5 23C9.11929 23 8 24.1193 8 25.5C8 26.8807 9.11929 28 10.5 28Z" stroke="currentColor" stroke-width="1.90625" stroke-linecap="round" stroke-linejoin="round"></path><path d="M20.5 28C21.8807 28 23 26.8807 23 25.5C23 24.1193 21.8807 23 20.5 23C19.1193 23 18 24.1193 18 25.5C18 26.8807 19.1193 28 20.5 28Z" stroke="currentColor" stroke-width="1.90625" stroke-linecap="round" stroke-linejoin="round"></path><path d="M28 15.5V18H24.25C23.5625 18 23 17.4375 23 16.75V13C23 12.3125 23.5625 11.75 24.25 11.75H25.8625L28 15.5Z" stroke="currentColor" stroke-width="1.90625" stroke-linecap="round" stroke-linejoin="round"></path><path d="M3 10.5H10.5" stroke="currentColor" stroke-width="1.90625" stroke-linecap="round" stroke-linejoin="round"></path><path d="M3 14.25H8" stroke="currentColor" stroke-width="1.90625" stroke-linecap="round" stroke-linejoin="round"></path><path d="M3 18H5.5" stroke="currentColor" stroke-width="1.90625" stroke-linecap="round" stroke-linejoin="round"></path></svg>